<svg width="787" height="740" viewBox="0 0 787 740" fill="none" xmlns="http://www.w3.org/2000/svg">
<path fill-rule="evenodd" clip-rule="evenodd" d="M375.291 403.669C375.47 401.225 376.237 378.427 377.593 335.274C377.933 324.473 370.132 315 359.097 312.814C358.358 312.668 357.987 312.594 357.987 312.594C344.67 311.701 332.816 320.639 330.579 333.262L319.16 397.701" fill="white"/>
<path d="M358.116 313.09L359.19 313.302C369.965 315.437 377.584 324.688 377.252 335.236C375.897 378.36 375.129 401.178 374.951 403.61C374.93 403.897 375.156 404.146 375.456 404.167C375.755 404.187 376.015 403.971 376.036 403.683C376.216 401.228 376.982 378.45 378.339 335.267C378.686 324.213 370.703 314.518 359.409 312.281L358.299 312.061L358.228 312.052C344.631 311.139 332.529 320.265 330.245 333.153L318.826 397.591C318.776 397.875 318.975 398.144 319.271 398.192C319.568 398.241 319.848 398.05 319.898 397.766L331.317 333.327C333.505 320.98 345.091 312.234 358.116 313.09Z" fill="#291C85"/>
<path fill-rule="evenodd" clip-rule="evenodd" d="M384.147 397.997L389.981 354.498C390.543 350.31 387.458 346.479 383.091 345.94C382.754 345.899 382.415 345.878 382.075 345.878C376.669 345.878 371.876 349.212 370.198 354.14L355.25 398.026L384.147 397.997Z" fill="white"/>
<path d="M384.616 398.2C384.889 398.2 385.12 398.005 385.155 397.745L390.989 354.246C391.588 349.772 388.294 345.68 383.629 345.104C383.269 345.06 382.906 345.038 382.543 345.038C376.902 345.038 371.901 348.517 370.149 353.659L355.201 397.546C355.086 397.883 355.348 398.229 355.718 398.229L384.616 398.2ZM384.137 397.158L356.468 397.185L371.183 353.982C372.788 349.27 377.373 346.081 382.543 346.081C382.86 346.081 383.176 346.1 383.491 346.139C387.559 346.641 390.433 350.211 389.91 354.113L384.137 397.158Z" fill="#291C85"/>
<path fill-rule="evenodd" clip-rule="evenodd" d="M240.337 504.757L295.707 487.447C301.983 485.485 306.561 480.287 307.528 474.025L319.362 397.331H383.525L372.172 494.777C370.173 511.942 360.532 527.439 345.731 537.279L282.75 579.155L240.337 504.757Z" fill="#4D63E3"/>
<path fill-rule="evenodd" clip-rule="evenodd" d="M373.375 485.983C360.567 492.705 351.263 500.353 345.463 508.929C339.663 517.504 334.709 530.367 330.6 547.518C334.148 545.037 337.169 542.951 339.663 541.261C349.875 534.339 357.725 528.043 362.5 520.749C369.025 510.783 372.65 499.194 373.375 485.983Z" fill="#D8DEED"/>
<path d="M303.681 481.528C303.686 481.521 303.691 481.515 303.695 481.508C303.71 481.489 303.724 481.471 303.74 481.455C305.487 479.298 306.67 476.712 307.103 473.905L318.927 397.284C318.966 397.028 319.196 396.839 319.465 396.839H383.627C383.952 396.839 384.204 397.108 384.168 397.418L379.237 439.739C379.321 439.84 379.367 439.971 379.354 440.111C379.34 440.257 379.263 440.385 379.152 440.471L372.822 494.804C370.801 512.153 361.041 527.812 346.065 537.734L283.421 579.237C283.22 579.369 282.951 579.358 282.764 579.208C274.143 572.312 266.969 563.566 261.242 552.973C255.53 542.408 249.116 526.042 241.992 503.867C241.905 503.594 242.063 503.304 242.347 503.217L295.551 486.939C298.829 485.937 301.635 484.024 303.681 481.528ZM260.215 498.845L243.191 504.054C250.232 525.923 256.574 542.072 262.208 552.493C267.799 562.836 274.778 571.387 283.144 578.153L299.108 567.576L260.215 498.845ZM261.27 498.523L300.008 566.98L345.446 536.876C360.164 527.126 369.755 511.738 371.741 494.688L378.052 440.522L314.239 435.02C314.226 435.02 314.215 435.018 314.203 435.016L308.178 474.057C307.743 476.877 306.599 479.486 304.909 481.7L342.879 507.809C343.123 507.977 343.179 508.303 343.004 508.537C342.829 508.771 342.49 508.825 342.245 508.657L304.24 482.523C302.091 485.009 299.215 486.913 295.882 487.933L261.27 498.523ZM314.363 433.984L378.173 439.485L383.019 397.882H319.934L314.363 433.984Z" fill="#291C85"/>
<path fill-rule="evenodd" clip-rule="evenodd" d="M140.65 515.534C140.65 515.534 123.733 523.994 89.8999 540.913L104.297 566.263L147.9 538.103C143.066 523.057 140.65 515.534 140.65 515.534Z" fill="#D8DEED"/>
<path fill-rule="evenodd" clip-rule="evenodd" d="M477.05 630.608L466.537 548.561L471.975 546.128L494.45 514.143L498.437 513.1C499.88 512.77 500.968 512.77 501.7 513.1C502.432 513.431 503.399 514.358 504.6 515.882V613.226C503.802 615.067 503.077 616.341 502.425 617.05C501.773 617.758 500.686 618.454 499.162 619.136L477.05 630.608ZM380.262 702.921L449.137 678.585L452.4 687.624L497.35 698.749L499.162 701.878C498.754 704.177 498.27 705.799 497.712 706.745C497.155 707.691 496.067 708.734 494.45 709.874L400.562 731.081C398.62 731.268 397.049 731.036 395.85 730.386C394.651 729.736 393.442 728.461 392.225 726.561L380.262 702.921Z" fill="white"/>
<path d="M140.139 515.1L89.3888 540.479C89.1191 540.614 89.0169 540.935 89.1626 541.191L103.56 566.542C103.713 566.811 104.075 566.896 104.341 566.724L147.943 538.564C148.143 538.436 148.231 538.198 148.159 537.978L140.909 515.41C140.809 515.098 140.44 514.95 140.139 515.1ZM147.002 537.916L104.229 565.539L90.3821 541.158L140.063 516.315L147.002 537.916Z" fill="#291C85"/>
<path fill-rule="evenodd" clip-rule="evenodd" d="M296.163 601.753V602.825L246.5 510.667L176.175 539.175C177.486 580.334 183.493 607.682 194.197 621.222C204.902 634.761 223.907 639.049 251.213 634.085H290.725L296.163 601.753Z" fill="#4D63E3"/>
<path d="M296.808 601.753V602.825C296.808 603.026 296.706 603.177 296.562 603.264L291.364 634.168C291.322 634.421 291.095 634.606 290.827 634.606H251.366C223.905 639.589 204.709 635.252 193.866 621.537C183.075 607.886 177.048 580.451 175.733 539.191C175.727 538.975 175.859 538.778 176.066 538.694L246.391 510.186C246.652 510.081 246.955 510.186 247.086 510.428L296.041 601.273C296.363 601.144 296.808 601.318 296.808 601.753ZM296.669 602.625L296.693 602.483L296.611 602.331C296.66 602.421 296.679 602.524 296.669 602.625ZM246.351 511.335L176.833 539.516C178.164 580.375 184.148 607.518 194.733 620.907C205.292 634.261 224.09 638.503 251.214 633.572L251.315 633.563H290.365L295.562 602.657L246.351 511.335Z" fill="#291C85"/>
<path fill-rule="evenodd" clip-rule="evenodd" d="M283.113 579.155L286.738 585.761C275.599 594.188 266.778 600.098 260.275 603.491C253.773 606.884 246.644 610.013 238.888 612.878L234.538 605.577C241.607 602.65 248.374 599.405 254.838 595.843C261.301 592.281 270.726 586.718 283.113 579.155Z" fill="#D8DEED"/>
<path fill-rule="evenodd" clip-rule="evenodd" d="M304.5 720.651L476.325 631.304L466.9 548.909L296.525 629.218" fill="#D8DEED"/>
<path d="M282.809 578.375C270.064 586.614 260.166 592.634 253.121 596.431C246.089 600.222 239.475 603.105 233.278 605.082C232.993 605.173 232.839 605.469 232.934 605.742C233.029 606.015 233.337 606.163 233.622 606.072C239.887 604.072 246.564 601.162 253.654 597.34C260.73 593.526 270.649 587.493 283.416 579.24C283.666 579.079 283.731 578.755 283.563 578.516C283.395 578.277 283.057 578.214 282.809 578.375Z" fill="#291C85"/>
<path d="M286.669 585.345C274.837 593.951 264.501 600.542 255.667 605.118C246.87 609.675 240.873 612.091 237.751 612.358C237.453 612.384 237.231 612.637 237.258 612.924C237.285 613.211 237.549 613.423 237.848 613.397C241.17 613.112 247.255 610.66 256.183 606.036C265.072 601.431 275.452 594.812 287.326 586.176C287.565 586.002 287.612 585.675 287.43 585.446C287.249 585.216 286.908 585.171 286.669 585.345Z" fill="#291C85"/>
<path d="M475.925 630.832C475.906 630.788 475.893 630.74 475.887 630.691L466.465 549.367L296.505 629.686C296.236 629.813 295.91 629.706 295.777 629.448C295.645 629.19 295.755 628.877 296.025 628.75L470.983 546.069L493.364 514.424C494.152 513.31 495.471 512.651 496.874 512.669C497.372 512.676 497.847 512.767 498.287 512.927C498.317 512.879 498.366 512.82 498.437 512.753C498.679 512.521 498.962 512.375 499.285 512.313C499.612 512.25 499.944 512.218 500.277 512.217C503.092 512.213 505.377 514.399 505.381 517.099L505.534 610.482C505.54 614.497 503.454 618.449 499.447 619.42L499.446 619.491C499.444 619.679 499.334 619.852 499.162 619.942L304.499 721.109C304.235 721.247 303.905 721.153 303.762 720.9C303.619 720.646 303.717 720.33 303.981 720.192L475.925 630.832ZM476.937 630.306L498.363 619.17L499.895 516.711C499.919 515.079 498.56 513.737 496.858 513.713C495.822 513.699 494.846 514.186 494.264 515.009L471.802 546.768C471.749 546.843 471.678 546.903 471.593 546.943L467.399 548.925C467.477 549.004 467.529 549.108 467.543 549.224L476.937 630.306ZM499.406 513.536C500.383 514.281 501.002 515.436 500.984 516.725L499.463 618.333C502.8 617.363 504.452 613.923 504.446 610.484L504.294 517.1C504.291 514.976 502.493 513.258 500.278 513.26C500.016 513.261 499.755 513.286 499.498 513.336C499.466 513.412 499.436 513.479 499.406 513.536Z" fill="#291C85"/>
<path fill-rule="evenodd" clip-rule="evenodd" d="M167.475 618.465L173.016 647.321L214.336 717.268C225.208 735.673 248.383 743.812 269.078 736.495L283.561 731.374C297.494 726.447 309.513 717.536 317.994 705.845L355.424 654.249L380.263 702.921L449.138 678.585L400.718 568.762C395.413 556.729 383.113 548.909 369.491 548.909C355.096 548.909 341.289 554.378 331.09 564.119L266.178 626.114" fill="#4D63E3"/>
<path fill-rule="evenodd" clip-rule="evenodd" d="M328.425 566.64C340.025 575.215 352.109 581.357 364.675 585.065C377.241 588.773 391.138 587.963 406.363 582.632C402.965 571.834 399.218 564.301 395.125 560.034C390.249 554.95 381.156 550.424 375.913 549.257C369.033 547.725 356.327 549.497 346.188 554.124C341.31 556.35 335.389 560.522 328.425 566.64Z" fill="#D8DEED"/>
<path d="M498.989 700.756L499.185 700.71L499.193 700.743C500.322 705.234 497.441 709.753 492.757 710.836L402.201 731.773C398.115 732.718 393.89 730.913 391.88 727.399C391.708 727.373 391.554 727.268 391.475 727.111L355.339 655.254L318.44 706.118C309.896 717.896 297.786 726.874 283.748 731.838L269.266 736.959C248.321 744.365 224.867 736.127 213.863 717.5L172.542 647.553C172.512 647.502 172.491 647.447 172.48 647.39L166.941 618.535C166.886 618.251 167.081 617.979 167.376 617.927C167.672 617.875 167.956 618.063 168.01 618.346L173.533 647.115L214.809 716.986C225.55 735.168 248.445 743.209 268.89 735.98L283.372 730.859C297.201 725.97 309.131 717.125 317.548 705.522L354.977 653.926C355.215 653.598 355.733 653.638 355.914 653.997L380.242 702.372L448.34 678.311L407.473 585.46C383.291 596.765 356.26 591.343 326.448 569.263L266.562 626.458C266.348 626.662 266.005 626.661 265.792 626.457C265.581 626.253 265.581 625.923 265.794 625.72L330.706 563.724C341.007 553.886 354.953 548.363 369.491 548.363C383.33 548.363 395.825 556.311 401.206 568.539L449.454 678.161C449.54 678.22 449.609 678.303 449.648 678.405C449.681 678.49 449.689 678.579 449.676 678.663L453.261 686.809L495.848 697.121C497.37 697.49 498.547 698.647 498.894 700.115C498.944 700.329 498.975 700.544 498.989 700.756ZM498.336 703.157C497.765 704.01 496.859 704.656 495.748 704.897L393.011 727.192C394.848 730.099 398.454 731.566 401.947 730.759L492.503 709.822C495.842 709.05 498.134 706.282 498.336 703.157ZM380.716 703.316L392.267 726.284L495.508 703.88C497.167 703.519 498.208 701.937 497.833 700.345C497.577 699.26 496.707 698.405 495.582 698.132L452.732 687.757C452.567 687.716 452.43 687.604 452.365 687.454L448.763 679.273L380.716 703.316ZM407.05 584.497L400.204 568.945C394.992 557.103 382.893 549.406 369.491 549.406C355.241 549.406 341.571 554.82 331.474 564.463L327.225 568.52C356.714 590.325 383.3 595.626 407.05 584.497Z" fill="#291C85"/>
<path fill-rule="evenodd" clip-rule="evenodd" d="M203 503.714L67.4127 586.757C36.5712 605.647 25.243 643.617 40.9973 675.293L50.7203 694.843C67.9593 729.503 111.231 744.198 147.371 727.665C149.301 726.783 151.189 725.818 153.03 724.775L215.057 689.637C226.609 683.093 236.04 673.603 242.303 662.223L243.056 660.854C249.546 649.062 249.749 635.001 243.602 623.041L228.375 593.409C205.772 609.571 193.568 620.696 191.762 626.784C190.152 632.213 171.723 643.398 136.474 660.338C128.829 664.012 119.523 661.438 115.094 654.423C111.535 648.788 113.414 641.454 119.289 638.042C119.961 637.652 120.669 637.324 121.405 637.062L187.412 613.573" fill="#4D63E3"/>
<path fill-rule="evenodd" clip-rule="evenodd" d="M39.15 671.979C40.9625 676.847 48.8323 692.084 51.8375 697.011C54.9985 702.194 58.3625 707.093 62.7125 711.96C67.0204 716.78 72.8161 721.545 81.5625 725.866C84.4886 727.312 87.6307 728.818 90.9875 730.386C88.7298 712.114 86.1923 699.366 83.375 692.143C81.0912 686.288 78.7683 680.418 75.4 675.804C66.9414 664.215 53.2701 652.502 34.3867 640.663C32.7286 648.561 34.3164 659 39.15 671.979Z" fill="#D8DEED"/>
<path fill-rule="evenodd" clip-rule="evenodd" d="M194.3 620.179L195.025 629.218C203.748 645.053 209.111 654.613 211.114 657.898C213.222 661.353 217.404 669.871 223.662 683.452C230.675 677.627 236.234 671.6 240.337 665.374C244.441 659.147 246.978 652.89 247.95 646.6C248.916 638.257 246.5 628.87 240.7 618.44C237.807 613.238 233.578 604.547 228.012 592.366C212.238 600.378 201.242 606.983 195.025 612.183C188.808 617.383 188.567 620.048 194.3 620.179Z" fill="white"/>
<path d="M242.855 622.952C248.924 634.763 248.724 648.647 242.315 660.293L241.562 661.662C235.347 672.956 225.986 682.374 214.521 688.868L152.272 724.133C150.512 725.13 148.708 726.055 146.866 726.905C111.053 743.425 68.0565 728.974 50.8305 694.627L41.4679 675.958C25.813 644.745 36.7097 607.237 66.9379 588.284L201.122 504.15C201.374 503.993 201.444 503.669 201.28 503.429C201.116 503.187 200.779 503.12 200.528 503.277L66.3426 587.411C35.6577 606.651 24.5964 644.725 40.4877 676.41L49.8511 695.08C67.3366 729.945 110.983 744.614 147.337 727.844C149.207 726.982 151.039 726.043 152.825 725.031L215.074 689.767C226.713 683.174 236.214 673.613 242.524 662.148L243.277 660.779C249.848 648.839 250.054 634.601 243.831 622.491L228.603 592.86C228.474 592.608 228.16 592.5 227.893 592.614C209.864 600.367 198.802 606.169 194.644 610.072C192.744 611.856 191.69 614.111 191.259 616.846C190.99 618.552 190.971 620.024 191.08 622.659C191.177 624.973 191.17 625.683 190.98 626.322C189.436 631.527 170.984 642.726 135.971 659.553C128.579 663.105 119.582 660.616 115.299 653.834C111.949 648.529 113.718 641.624 119.249 638.411C119.93 638.015 120.652 637.688 121.402 637.433L190.132 614.065C190.415 613.969 190.563 613.671 190.463 613.399C190.363 613.127 190.052 612.986 189.768 613.082L121.039 636.45C120.218 636.728 119.43 637.087 118.685 637.519C112.64 641.03 110.708 648.577 114.369 654.374C118.946 661.621 128.559 664.282 136.458 660.485C171.942 643.432 190.349 632.261 192.026 626.608C192.262 625.811 192.27 625.085 192.167 622.617C192.06 620.046 192.079 618.623 192.334 617.002C192.733 614.476 193.69 612.428 195.406 610.817C199.4 607.067 210.237 601.368 227.86 593.772L242.855 622.952Z" fill="#291C85"/>
<path fill-rule="evenodd" clip-rule="evenodd" d="M246.603 510.597C233.936 483.609 226.323 465.679 223.765 456.809C215.473 428.056 209.686 402.976 178.712 402.976C147.738 402.976 122.628 427.058 122.628 456.765C122.628 465.226 130.24 492.359 145.465 538.16C167.919 538.074 186.086 537.002 199.964 534.944C213.843 532.885 229.389 524.77 246.603 510.597Z" fill="#4D63E3" stroke="#291C85" stroke-width="1.5" stroke-linecap="round" stroke-linejoin="round"/>
<path fill-rule="evenodd" clip-rule="evenodd" d="M246.5 510.515C233.833 483.526 226.221 465.597 223.662 456.726C215.37 427.973 209.583 402.893 178.609 402.893C147.635 402.893 122.525 426.976 122.525 456.682C122.525 465.143 130.137 492.275 145.362 538.078C167.817 537.991 185.983 536.919 199.861 534.86C213.74 532.802 229.286 524.687 246.5 510.515Z" fill="#4D63E3"/>
<path fill-rule="evenodd" clip-rule="evenodd" d="M246.5 510.515C233.833 483.526 226.221 465.597 223.662 456.726C215.37 427.973 209.583 402.893 178.609 402.893C147.635 402.893 122.525 426.976 122.525 456.682C122.525 465.143 130.137 492.275 145.362 538.078C167.817 537.991 185.983 536.919 199.861 534.86C213.74 532.802 229.286 524.687 246.5 510.515Z" stroke="#291C85" stroke-width="1.5" stroke-linecap="round" stroke-linejoin="round"/>
<path d="M246.996 510.3C234.341 483.337 226.735 465.423 224.187 456.587C223.853 455.431 222.375 450.266 221.977 448.889C217.098 432.003 213.721 423.381 208.286 416.136C201.422 406.987 192.032 402.372 178.609 402.372C147.334 402.372 121.981 426.687 121.981 456.682C121.981 465.224 129.594 492.359 144.844 538.236C144.917 538.453 145.127 538.599 145.365 538.599C167.844 538.513 186.036 537.439 199.945 535.376C213.939 533.301 229.57 525.141 246.854 510.91C247.037 510.759 247.094 510.511 246.996 510.3ZM199.779 534.345C186.012 536.387 168.005 537.457 145.759 537.555C130.64 492.049 123.069 465.041 123.069 456.682C123.069 427.263 147.935 403.415 178.609 403.415C191.683 403.415 200.744 407.869 207.403 416.745C212.738 423.856 216.083 432.4 220.929 449.168C221.326 450.543 222.804 455.707 223.138 456.865C225.695 465.731 233.259 483.557 245.837 510.372C228.816 524.33 213.46 532.316 199.779 534.345Z" fill="#291C85"/>
<path d="M152.376 481.435C152.376 481.435 182.659 492.839 228.672 477.331C229.463 477.065 230.33 476.588 231.275 475.901C228.896 471.337 227.446 468.208 226.925 466.515C224.804 459.623 224.608 455.245 222.213 450.87C220.664 448.043 220.122 443.219 218.588 438.702C217.76 436.266 216.189 432.441 213.875 427.229C211.576 422.853 210.005 419.956 209.163 418.538C207.872 416.367 207.871 414.248 206.189 414.483C197.095 415.753 187.289 421.409 176.769 431.453C152.323 454.795 152.376 481.435 152.376 481.435Z" fill="#291C85"/>
<path fill-rule="evenodd" clip-rule="evenodd" d="M171.825 436.616C174.362 433.835 175.767 432.093 177.987 430.011C180.208 427.928 183.062 425.491 188.137 422.015C190.796 428.736 193.454 436.037 196.837 446.003C201.912 460.952 193.877 463.309 184.15 453.304C177.666 446.633 173.798 441.303 171.825 436.616ZM200.578 435.752C202.387 435.874 203.371 443.397 203.924 444.689C204.232 445.409 203.873 446.232 203.122 446.527C202.437 446.797 201.649 446.535 201.285 445.915C199.166 442.309 198.115 440.145 198.13 439.422C198.17 437.594 198.77 435.631 200.578 435.752Z" fill="white"/>
<path d="M190.415 612.183C214.84 612.183 234.64 593.193 234.64 569.768C234.64 546.344 214.84 527.354 190.415 527.354C165.99 527.354 146.19 546.344 146.19 569.768C146.19 593.193 165.99 612.183 190.415 612.183Z" fill="#291C85"/>
<path d="M152.883 477.872C149.06 461.601 154.675 446.134 169.777 431.419C184.883 416.702 195.556 409.572 201.611 410.019C201.91 410.041 201.527 410.134 201.55 409.847C201.573 409.559 201.487 409.521 201.187 409.499C201.014 409.486 201.345 408.959 201.166 408.957C194.603 408.889 183.939 416.136 169.002 430.688C153.655 445.641 147.912 461.461 151.822 478.102C151.888 478.383 152.179 478.559 152.472 478.495C152.765 478.432 152.949 478.153 152.883 477.872Z" fill="#291C85"/>
<path fill-rule="evenodd" clip-rule="evenodd" d="M161.778 602.796L178.091 562.79L219.003 551.417C220.541 550.989 222.15 551.838 222.595 553.314C222.864 554.203 222.655 555.16 222.036 555.871L198.753 582.632L196.838 612.183L161.778 602.796Z" fill="white"/>
<path fill-rule="evenodd" clip-rule="evenodd" d="M177.999 562.815C172.434 568.646 168.896 572.478 167.384 574.313C159.448 583.947 159.74 587.589 163.499 589.933C170.749 594.452 178.259 603.516 183.334 595.172C186.717 589.61 184.939 578.824 177.999 562.815Z" fill="#4D63E3"/>
<path d="M177.689 562.438C177.958 562.157 178.44 562.238 178.592 562.59C185.594 578.743 187.394 589.657 183.895 595.41C181.899 598.691 179.358 599.678 176.243 598.727C173.993 598.041 172.29 596.925 167.766 593.514C166.683 592.697 166.049 592.227 165.368 591.74C164.616 591.204 163.938 590.747 163.294 590.345C158.737 587.504 159.568 583.045 167.049 573.965C168.571 572.116 172.114 568.278 177.689 562.438ZM182.955 594.885C186.171 589.599 184.52 579.195 177.914 563.748C172.69 569.229 169.35 572.854 167.902 574.611C160.764 583.276 160.055 587.082 163.886 589.47C164.553 589.885 165.249 590.355 166.017 590.904C166.708 591.397 167.348 591.872 168.439 592.694C172.839 596.012 174.502 597.102 176.573 597.734C179.195 598.534 181.212 597.751 182.955 594.885ZM200.016 581.291C200.187 581.055 200.526 580.996 200.773 581.16C201.019 581.325 201.08 581.65 200.909 581.886C198.803 584.795 196.864 586.282 195.025 586.282C194.725 586.282 194.481 586.048 194.481 585.761C194.481 585.473 194.725 585.239 195.025 585.239C196.408 585.239 198.095 583.945 200.016 581.291Z" fill="#291C85"/>
<path d="M150.437 487.722C153.44 487.722 155.875 485.387 155.875 482.507C155.875 479.627 153.44 477.292 150.437 477.292C147.435 477.292 145 479.627 145 482.507C145 485.387 147.435 487.722 150.437 487.722Z" fill="white"/>
<path d="M150.178 488.243C153.481 488.243 156.159 485.675 156.159 482.507C156.159 479.339 153.481 476.77 150.178 476.77C146.874 476.77 144.197 479.339 144.197 482.507C144.197 485.675 146.874 488.243 150.178 488.243ZM150.178 487.2C147.475 487.2 145.284 485.099 145.284 482.507C145.284 479.915 147.475 477.813 150.178 477.813C152.881 477.813 155.072 479.915 155.072 482.507C155.072 485.099 152.881 487.2 150.178 487.2Z" fill="#291C85"/>
<path d="M150.178 485.462C152.065 485.462 153.622 484.155 153.622 482.507C153.622 480.858 152.065 479.552 150.178 479.552C148.291 479.552 146.734 480.858 146.734 482.507C146.734 484.155 148.291 485.462 150.178 485.462ZM150.178 484.419C148.862 484.419 147.822 483.546 147.822 482.507C147.822 481.467 148.862 480.595 150.178 480.595C151.494 480.595 152.534 481.467 152.534 482.507C152.534 483.546 151.494 484.419 150.178 484.419Z" fill="#291C85"/>
<path fill-rule="evenodd" clip-rule="evenodd" d="M196.838 609.749L194.766 629.218L163.953 646.6L139.563 658.768L127.6 643.472C137.602 642.916 143.281 641.409 144.638 638.952C148.652 631.679 154.331 619.743 161.675 603.143L196.838 609.749Z" fill="white"/>
<path d="M196.942 608.89C197.217 608.942 197.406 609.186 197.378 609.454L195.306 628.923C195.288 629.088 195.189 629.235 195.041 629.32L164.204 646.715L139.813 658.883C139.577 659.001 139.287 658.938 139.127 658.734L127.165 643.437C126.905 643.104 127.135 642.627 127.569 642.603C137.368 642.059 142.93 640.583 144.157 638.36C148.162 631.104 153.835 619.179 161.174 602.592C161.275 602.365 161.527 602.237 161.779 602.284L196.942 608.89ZM162.003 603.389C154.737 619.798 149.11 631.617 145.118 638.848C143.682 641.45 138.218 642.974 128.639 643.584L139.72 657.754L163.677 645.804L194.252 628.554L196.246 609.822L162.003 603.389ZM194.489 628.421L194.224 628.817L194.252 628.554L194.489 628.421Z" fill="#291C85"/>
<path fill-rule="evenodd" clip-rule="evenodd" d="M64.525 467.558C60.921 467.558 58 464.756 58 461.3C58 457.843 60.921 455.042 64.525 455.042C68.129 455.042 71.05 457.843 71.05 461.3C71.05 464.756 68.129 467.558 64.525 467.558ZM128.325 483.202L130.035 489.46C129.625 489.593 129.219 489.738 128.817 489.894C117.354 494.343 111.823 506.862 116.463 517.856L119.885 525.964L113.36 529.44L109.5 517.388C105.336 504.388 111.857 490.441 124.748 484.775L128.325 483.202Z" fill="white"/>
<path d="M79.5628 490.579C79.5795 490.472 79.5606 490.363 79.5099 490.267L67.1849 466.974C67.0486 466.717 66.7216 466.615 66.4541 466.745C66.1858 466.875 66.0793 467.189 66.2148 467.446L78.4615 490.591L77.0369 499.813C77.0007 500.049 77.1355 500.279 77.3646 500.371L87.3065 504.361L103.558 533.326C103.701 533.579 104.031 533.674 104.295 533.538C104.559 533.401 104.659 533.084 104.516 532.831L88.1729 503.704C88.1142 503.599 88.0192 503.516 87.9039 503.47L78.1744 499.565L79.5628 490.579Z" fill="#291C85"/>
<path d="M64.2655 468.079C60.3614 468.079 57.1968 465.044 57.1968 461.3C57.1968 457.555 60.3614 454.52 64.2655 454.52C68.1689 454.52 71.3343 457.555 71.3343 461.3C71.3343 465.044 68.1689 468.079 64.2655 468.079ZM64.2655 467.036C67.5686 467.036 70.2468 464.468 70.2468 461.3C70.2468 458.132 67.5686 455.563 64.2655 455.563C60.9617 455.563 58.2843 458.132 58.2843 461.3C58.2843 464.468 60.9617 467.036 64.2655 467.036ZM127.839 482.728C128.146 482.593 128.506 482.756 128.591 483.07L130.301 489.328C130.373 489.593 130.22 489.866 129.95 489.954C129.55 490.084 129.153 490.225 128.762 490.377C117.577 494.719 112.18 506.934 116.707 517.66L120.129 525.768C120.232 526.012 120.129 526.292 119.889 526.42L113.364 529.896C113.062 530.057 112.682 529.91 112.58 529.593L108.72 517.541C104.476 504.292 111.122 490.076 124.261 484.301L127.839 482.728ZM124.715 485.248C112.071 490.806 105.676 504.485 109.76 517.235L113.423 528.672L118.941 525.732L115.699 518.051C110.947 506.791 116.612 493.968 128.353 489.41C128.608 489.312 128.864 489.217 129.122 489.127L127.703 483.935L124.715 485.248Z" fill="#291C85"/>
<path d="M78.0686 672.21C87.5647 684.624 93.6133 704.462 96.2415 731.728L95.1583 731.824C92.5084 704.332 86.3728 684.486 76.7781 672.294C68.9358 662.328 60.5149 654.119 51.8439 647.502C45.4806 642.644 39.5262 639.044 34.3098 636.534L34.7977 635.601C40.0786 638.143 46.0969 641.782 52.5218 646.685C61.1754 653.29 69.5782 661.463 77.4103 671.366L113.929 652.4C114.192 652.262 114.522 652.357 114.666 652.61C114.809 652.863 114.711 653.18 114.446 653.317L78.0686 672.21ZM129.944 662.35C129.8 662.098 129.897 661.781 130.161 661.642C130.424 661.505 130.754 661.598 130.899 661.85L163.239 718.663C163.384 718.916 163.287 719.233 163.023 719.371C162.759 719.509 162.429 719.416 162.285 719.163L129.944 662.35ZM118.078 638.375C118.21 638.633 118.099 638.946 117.829 639.072C117.56 639.2 117.234 639.093 117.102 638.835L85.062 576.256C84.9293 575.998 85.041 575.686 85.3107 575.558C85.5796 575.431 85.9059 575.538 86.0378 575.797L118.078 638.375Z" fill="#291C85"/>
<path d="M145.725 538.479L161.778 569.768" stroke="#291C85" stroke-width="1.5" stroke-linecap="round" stroke-linejoin="round"/>
<path d="M194.947 629.044L223.663 683.211" stroke="#291C85" stroke-width="1.5" stroke-linecap="round" stroke-linejoin="round"/>
<path d="M648.367 381.184C648.658 381.107 648.955 381.268 649.034 381.545C649.114 381.822 648.947 382.111 648.657 382.188L602.519 394.653C591.246 397.699 584.681 408.932 587.857 419.744C588.597 422.264 589.838 424.623 591.511 426.692L598.276 435.061C604.836 443.174 603.296 454.85 594.836 461.14C591.038 463.966 586.281 465.335 581.488 464.986L558.221 463.286C546.409 462.423 534.877 467.014 527.174 475.644L515.888 488.288C515.693 488.507 515.35 488.532 515.121 488.345C514.894 488.158 514.867 487.828 515.062 487.61L526.347 474.966C534.276 466.083 546.146 461.358 558.304 462.246L581.57 463.945C586.094 464.276 590.584 462.982 594.17 460.317C602.154 454.379 603.608 443.357 597.417 435.7L590.651 427.331C588.893 425.156 587.589 422.676 586.811 420.027C583.472 408.661 590.373 396.851 602.224 393.65L648.367 381.184ZM568.4 532.222V523.183C568.4 522.799 568.725 522.487 569.125 522.487C569.525 522.487 569.85 522.799 569.85 523.183V532.222H579.275C579.675 532.222 580 532.533 580 532.917C580 533.301 579.675 533.612 579.275 533.612H569.85V542.651C569.85 543.035 569.525 543.347 569.125 543.347C568.725 543.347 568.4 543.035 568.4 542.651V533.612H558.975C558.575 533.612 558.25 533.301 558.25 532.917C558.25 532.533 558.575 532.222 558.975 532.222H568.4ZM229.1 309.722V300.683C229.1 300.299 229.425 299.987 229.825 299.987C230.225 299.987 230.55 300.299 230.55 300.683V309.722H239.975C240.375 309.722 240.7 310.033 240.7 310.417C240.7 310.801 240.375 311.112 239.975 311.112H230.55V320.151C230.55 320.535 230.225 320.847 229.825 320.847C229.425 320.847 229.1 320.535 229.1 320.151V311.112H219.675C219.275 311.112 218.95 310.801 218.95 310.417C218.95 310.033 219.275 309.722 219.675 309.722H229.1ZM536.5 350.05V341.011C536.5 340.627 536.825 340.315 537.225 340.315C537.625 340.315 537.95 340.627 537.95 341.011V350.05H547.375C547.775 350.05 548.1 350.361 548.1 350.745C548.1 351.129 547.775 351.44 547.375 351.44H537.95V360.479C537.95 360.863 537.625 361.175 537.225 361.175C536.825 361.175 536.5 360.863 536.5 360.479V351.44H527.075C526.675 351.44 526.35 351.129 526.35 350.745C526.35 350.361 526.675 350.05 527.075 350.05H536.5ZM7.975 532.222V525.268C7.975 524.885 8.2998 524.573 8.7 524.573C9.1002 524.573 9.425 524.885 9.425 525.268V532.222H16.675C17.0752 532.222 17.4 532.533 17.4 532.917C17.4 533.301 17.0752 533.612 16.675 533.612H9.425V540.565C9.425 540.949 9.1002 541.261 8.7 541.261C8.2998 541.261 7.975 540.949 7.975 540.565V533.612H0.725C0.3248 533.612 0 533.301 0 532.917C0 532.533 0.3248 532.222 0.725 532.222H7.975ZM452.762 431.401V424.796C452.762 424.412 453.087 424.1 453.487 424.1C453.888 424.1 454.212 424.412 454.212 424.796V431.401H461.1C461.5 431.401 461.825 431.713 461.825 432.097C461.825 432.48 461.5 432.792 461.1 432.792H454.212V439.397C454.212 439.781 453.888 440.093 453.487 440.093C453.087 440.093 452.762 439.781 452.762 439.397V432.792H445.875C445.475 432.792 445.15 432.48 445.15 432.097C445.15 431.713 445.475 431.401 445.875 431.401H452.762ZM268.612 410.89V404.284C268.612 403.9 268.937 403.589 269.337 403.589C269.738 403.589 270.062 403.9 270.062 404.284V410.89H276.95C277.35 410.89 277.675 411.201 277.675 411.585C277.675 411.969 277.35 412.28 276.95 412.28H270.062V418.886C270.062 419.269 269.738 419.581 269.337 419.581C268.937 419.581 268.612 419.269 268.612 418.886V412.28H261.725C261.325 412.28 261 411.969 261 411.585C261 411.201 261.325 410.89 261.725 410.89H268.612Z" fill="#291C85"/>
<path fill-rule="evenodd" clip-rule="evenodd" d="M197.322 562.455C193.8 560.034 190.918 559.429 188.677 560.639C185.316 562.455 180.994 566.087 183.395 570.626C185.796 575.165 187.717 578.797 190.118 578.797C192.519 578.797 196.841 579.25 199.242 574.257C200.843 570.928 200.203 566.994 197.322 562.455Z" fill="#4D63E3"/>
<path fill-rule="evenodd" clip-rule="evenodd" d="M197.125 564.543C196.877 567.005 196.021 568.591 194.56 569.303C193.282 569.924 191.283 570.287 188.562 570.389C187.362 570.434 186.351 569.538 186.304 568.386C186.287 567.992 186.388 567.601 186.595 567.26C188.09 564.78 189.416 563.26 190.573 562.697C191.786 562.107 193.369 561.969 195.322 562.285C196.447 562.467 197.235 563.453 197.125 564.543Z" fill="white"/>
<path d="M196.223 565.366C195.858 565.917 195.134 566.292 194.3 566.292C193.099 566.292 192.125 565.514 192.125 564.554C192.125 563.616 193.053 562.852 194.214 562.817C192.719 562.662 191.502 562.822 190.558 563.281C189.521 563.785 188.252 565.241 186.805 567.639C186.65 567.895 186.575 568.188 186.587 568.484C186.622 569.347 187.381 570.019 188.281 569.986C190.93 569.886 192.86 569.537 194.054 568.956C195.178 568.409 195.909 567.228 196.223 565.366ZM195.201 562.971C195.382 563.027 195.548 563.112 195.693 563.219C195.545 563.12 195.379 563.036 195.201 562.971ZM197.407 564.711C197.141 567.334 196.2 569.081 194.546 569.886C193.184 570.548 191.116 570.923 188.324 571.028C186.823 571.085 185.559 569.964 185.501 568.525C185.48 568.032 185.607 567.543 185.864 567.117C187.408 564.556 188.791 562.97 190.067 562.35C191.396 561.704 193.094 561.556 195.152 561.888C196.559 562.117 197.544 563.349 197.407 564.711Z" fill="#291C85"/>
<path fill-rule="evenodd" clip-rule="evenodd" d="M220.038 551.176C218.341 550.769 216.552 551.049 214.669 552.014V552.015C214.316 552.196 214.183 552.617 214.372 552.956C214.412 553.027 214.465 553.091 214.527 553.146C215.246 553.763 216.116 554.114 217.138 554.198C218.491 554.309 220.062 554.309 221.85 554.198C222.575 552.646 221.971 551.64 220.038 551.176Z" fill="#4D63E3"/>
<path d="M220.532 550.596C218.697 550.156 216.771 550.457 214.775 551.481C214.157 551.798 213.924 552.535 214.255 553.128C214.324 553.253 214.417 553.365 214.527 553.46C215.335 554.155 216.317 554.55 217.454 554.643C218.836 554.757 220.433 554.757 222.247 554.644C222.449 554.632 222.626 554.513 222.708 554.337C223.58 552.473 222.777 551.134 220.532 550.596ZM217.546 553.605C216.641 553.53 215.882 553.224 215.252 552.683C215.237 552.67 215.223 552.654 215.214 552.636C215.166 552.551 215.2 552.446 215.288 552.4C217.058 551.493 218.711 551.234 220.268 551.608C221.759 551.966 222.222 552.566 221.836 553.623C220.214 553.712 218.784 553.706 217.546 553.605Z" fill="#291C85"/>
<path fill-rule="evenodd" clip-rule="evenodd" d="M670.625 350.05L663.375 351.788L681.862 369.171L684.037 362.218" fill="white"/>
<path d="M392.587 703.964C395.59 703.964 398.025 701.629 398.025 698.749C398.025 695.869 395.59 693.534 392.587 693.534C389.584 693.534 387.15 695.869 387.15 698.749C387.15 701.629 389.584 703.964 392.587 703.964Z" fill="white"/>
<path d="M392.328 704.485C395.631 704.485 398.309 701.917 398.309 698.749C398.309 695.581 395.631 693.013 392.328 693.013C389.024 693.013 386.347 695.581 386.347 698.749C386.347 701.917 389.024 704.485 392.328 704.485ZM392.328 703.442C389.625 703.442 387.434 701.341 387.434 698.749C387.434 696.157 389.625 694.056 392.328 694.056C395.031 694.056 397.222 696.157 397.222 698.749C397.222 701.341 395.031 703.442 392.328 703.442Z" fill="#291C85"/>
<path d="M474.512 621.222C477.515 621.222 479.95 618.887 479.95 616.007C479.95 613.127 477.515 610.792 474.512 610.792C471.509 610.792 469.075 613.127 469.075 616.007C469.075 618.887 471.509 621.222 474.512 621.222Z" fill="white"/>
<path d="M474.513 621.743C477.816 621.743 480.494 619.175 480.494 616.007C480.494 612.839 477.816 610.27 474.513 610.27C471.209 610.27 468.531 612.839 468.531 616.007C468.531 619.175 471.209 621.743 474.513 621.743ZM474.513 620.7C471.81 620.7 469.619 618.599 469.619 616.007C469.619 613.415 471.81 611.313 474.513 611.313C477.215 611.313 479.406 613.415 479.406 616.007C479.406 618.599 477.215 620.7 474.513 620.7Z" fill="#291C85"/>
<path d="M392.328 701.704C394.214 701.704 395.772 700.397 395.772 698.749C395.772 697.1 394.214 695.794 392.328 695.794C390.441 695.794 388.884 697.1 388.884 698.749C388.884 700.397 390.441 701.704 392.328 701.704ZM392.328 700.661C391.011 700.661 389.972 699.788 389.972 698.749C389.972 697.709 391.011 696.837 392.328 696.837C393.644 696.837 394.684 697.709 394.684 698.749C394.684 699.788 393.644 700.661 392.328 700.661Z" fill="#291C85"/>
<path d="M474.513 618.962C476.4 618.962 477.956 617.655 477.956 616.007C477.956 614.358 476.4 613.052 474.513 613.052C472.625 613.052 471.069 614.358 471.069 616.007C471.069 617.655 472.625 618.962 474.513 618.962ZM474.513 617.919C473.196 617.919 472.156 617.046 472.156 616.007C472.156 614.967 473.196 614.095 474.513 614.095C475.829 614.095 476.869 614.967 476.869 616.007C476.869 617.046 475.829 617.919 474.513 617.919Z" fill="#291C85"/>
<path d="M155.249 482.892C160.943 487.879 173.38 490.1 192.604 489.634C211.789 489.168 225.413 486.368 233.492 481.202C233.741 481.042 233.809 480.719 233.643 480.479C233.476 480.239 233.138 480.175 232.889 480.335C225.018 485.367 211.575 488.13 192.577 488.591C173.617 489.051 161.404 486.869 155.982 482.122C155.76 481.928 155.416 481.942 155.214 482.155C155.011 482.368 155.027 482.698 155.249 482.892Z" fill="#291C85"/>
<path fill-rule="evenodd" clip-rule="evenodd" d="M781.746 247.908C763.744 253.849 745.387 264.389 726.689 279.526C707.397 295.141 686.589 316.577 664.267 343.834L689.359 367.07C717.148 344.425 738.76 323.735 754.188 304.998C769.16 286.826 779.578 268.947 785.465 251.361C785.798 250.362 785.508 249.269 784.725 248.54C783.935 247.81 782.782 247.566 781.746 247.908Z" fill="#4D63E3"/>
<path fill-rule="evenodd" clip-rule="evenodd" d="M753.275 261.05L772.487 278.085C782.877 260.007 786.987 250.04 784.812 248.186C782.637 246.332 772.125 250.62 753.275 261.05Z" fill="#D8DEED"/>
<path fill-rule="evenodd" clip-rule="evenodd" d="M678.788 366.664L667.362 379.948L668.45 369.866L659.387 371.952L663.012 364.304H652.5L665.673 354.331L662.302 351.16L670.494 349.196L670.756 350.208L664.448 351.721L681.601 367.846L683.515 361.721L684.559 362.02L682.123 369.8L678.788 366.664Z" fill="#291C85"/>
<path d="M726.327 278.894C707.005 294.533 686.176 315.995 663.832 343.278C663.658 343.488 663.679 343.79 663.882 343.975L688.967 367.211C689.17 367.397 689.482 367.406 689.7 367.233C717.518 344.568 739.152 323.854 754.609 305.087C769.609 286.869 780.064 268.935 785.972 251.286C786.364 250.099 786.023 248.798 785.088 247.931C784.153 247.065 782.79 246.775 781.564 247.18C763.483 253.145 745.075 263.717 726.327 278.894ZM664.992 343.552C687.177 316.497 707.861 295.209 727.03 279.691C745.677 264.592 763.976 254.085 781.912 248.167C782.761 247.889 783.696 248.088 784.334 248.681C784.972 249.272 785.204 250.158 784.936 250.967C779.07 268.49 768.681 286.315 753.753 304.441C738.42 323.063 716.952 343.628 689.366 366.132L664.992 343.552Z" fill="#291C85"/>
<path fill-rule="evenodd" clip-rule="evenodd" d="M701.575 306.94L698.342 312.463L664.636 343.624L639.414 345.063L637.275 343.081L701.575 306.94ZM727.023 330.307L690.468 392.597L688.358 390.579L689.424 366.367L721.324 333.505L727.023 330.307Z" fill="white"/>
<path d="M700.944 306.738C701.423 306.469 701.967 306.98 701.699 307.444L698.465 312.965L698.364 313.086L664.666 344.247C664.571 344.334 664.448 344.385 664.318 344.393L639.095 345.831C638.943 345.84 638.79 345.787 638.682 345.686L636.543 343.704C636.282 343.464 636.333 343.053 636.644 342.879L700.944 306.738ZM637.812 343.432L639.269 344.776L664.049 343.363L697.552 312.388L699.763 308.612L637.812 343.432ZM697.61 312.335L697.515 312.455L697.552 312.388L697.61 312.335ZM726.392 330.105C726.871 329.836 727.414 330.347 727.139 330.81L690.584 393.1C690.41 393.401 689.983 393.457 689.729 393.213L687.626 391.196C687.518 391.093 687.46 390.951 687.467 390.805L688.525 366.593C688.533 366.468 688.583 366.35 688.67 366.259L720.57 333.397L720.694 333.302L726.392 330.105ZM721.31 334.164L689.606 366.829L688.562 390.62L689.99 391.99L725.21 331.977L721.31 334.164Z" fill="#291C85"/>
<path d="M742.4 301.378C748.403 301.378 753.275 296.708 753.275 290.948C753.275 285.188 748.403 280.518 742.4 280.518C736.397 280.518 731.525 285.188 731.525 290.948C731.525 296.708 736.397 301.378 742.4 301.378Z" fill="white"/>
<path d="M742.545 301.656C748.852 301.656 753.964 296.753 753.964 290.705C753.964 284.656 748.852 279.754 742.545 279.754C736.237 279.754 731.126 284.656 731.126 290.705C731.126 296.753 736.237 301.656 742.545 301.656ZM742.545 300.613C736.839 300.613 732.214 296.177 732.214 290.705C732.214 285.233 736.839 280.797 742.545 280.797C748.251 280.797 752.876 285.233 752.876 290.705C752.876 296.177 748.251 300.613 742.545 300.613Z" fill="#291C85"/>
<path d="M742.4 296.337C739.297 296.337 736.781 293.924 736.781 290.948C736.781 287.972 739.297 285.559 742.4 285.559C745.503 285.559 748.019 287.972 748.019 290.948C748.019 293.924 745.503 296.337 742.4 296.337ZM742.4 295.294C744.901 295.294 746.931 293.348 746.931 290.948C746.931 288.548 744.901 286.602 742.4 286.602C739.899 286.602 737.869 288.548 737.869 290.948C737.869 293.348 739.899 295.294 742.4 295.294ZM752.905 261.083L753.645 260.321L773.024 277.704L772.285 278.466L752.905 261.083Z" fill="#291C85"/>
<path d="M373.085 482.065C358.096 491.116 347.77 499.737 342.109 507.945C336.453 516.147 331.358 529.989 326.807 549.49L327.868 549.718C332.394 530.33 337.449 516.592 343.016 508.521C348.578 500.457 358.794 491.927 373.665 482.948L373.085 482.065Z" fill="#291C85"/>
<path fill-rule="evenodd" clip-rule="evenodd" d="M163.046 600.048C168.89 602.041 174.297 603.556 179.267 604.592C184.13 605.606 189.843 606.482 196.407 607.22C197.799 607.376 198.796 608.586 198.633 609.921C198.62 610.024 198.601 610.126 198.575 610.227L198.504 610.5C198.145 611.883 196.753 612.781 195.282 612.58C189.179 611.748 183.478 610.824 178.18 609.807C172.804 608.776 167.379 606.996 161.903 604.467C160.711 603.917 160.085 602.637 160.406 601.405C160.677 600.366 161.775 599.734 162.859 599.994C162.922 600.009 162.984 600.027 163.046 600.048Z" fill="white"/>
<path d="M184.529 606.55C182.672 606.236 180.912 605.905 179.25 605.558C177.225 605.136 175.115 604.591 172.92 603.923L172.137 607.179C174.331 607.808 176.488 608.325 178.607 608.732C180.289 609.054 182.013 609.368 183.778 609.672L184.529 606.55ZM185.602 606.728L184.85 609.855C188.296 610.436 191.896 610.982 195.649 611.494C196.568 611.62 197.438 611.058 197.663 610.194L197.734 609.921C197.749 609.864 197.76 609.805 197.768 609.746C197.86 608.983 197.291 608.292 196.495 608.203C192.563 607.76 188.931 607.269 185.602 606.728ZM171.882 603.6C169.055 602.701 166.09 601.603 162.988 600.307C162.92 600.279 162.849 600.256 162.777 600.238C162.059 600.067 161.333 600.486 161.154 601.174L161.04 601.613C160.825 602.438 161.264 603.29 162.077 603.628C165.149 604.907 168.156 605.989 171.095 606.872L171.882 603.6ZM163.422 599.351C169.283 601.799 174.636 603.529 179.481 604.539C184.344 605.553 190.057 606.429 196.622 607.167C198.014 607.323 199.01 608.532 198.847 609.868C198.835 609.971 198.815 610.072 198.789 610.173L198.718 610.446C198.358 611.829 196.967 612.728 195.496 612.527C189.393 611.694 183.692 610.77 178.393 609.754C173.039 608.727 167.455 607.004 161.644 604.585C160.343 604.044 159.641 602.68 159.984 601.361L160.099 600.921C160.423 599.675 161.739 598.916 163.04 599.227C163.171 599.258 163.298 599.3 163.422 599.351Z" fill="#291C85"/>
<path fill-rule="evenodd" clip-rule="evenodd" d="M98.6001 542.999L103.675 540.913L108.75 550.995L103.675 554.124L98.6001 542.999ZM115.638 546.823C114.284 546.823 112.922 546.609 112.013 545.78C111.039 544.894 110.563 543.346 110.563 541.956C110.563 540.843 110.995 539.299 111.65 538.479C112.577 537.318 113.995 537.089 115.638 537.089C117.101 537.089 118.337 537.182 119.263 538.132C120.111 539.002 120.713 540.671 120.713 541.956C120.713 543.561 120.149 545.241 118.9 546.128C118.057 546.727 116.767 546.823 115.638 546.823Z" fill="#4D63E3"/>
<path d="M98.2449 542.726L104.302 540.237L109.812 551.184L103.795 554.894L98.2449 542.726ZM104.28 553.354L108.414 550.806L103.774 541.589L99.6804 543.272L104.28 553.354ZM116 547.345C114.264 547.345 112.936 547.01 112.001 546.158C110.965 545.215 110.381 543.587 110.381 541.956C110.381 540.678 110.876 539.045 111.581 538.162C112.532 536.971 113.879 536.567 116 536.567C118.02 536.567 119.087 536.817 120.022 537.776C120.952 538.729 121.619 540.515 121.619 541.956C121.619 543.858 120.908 545.608 119.586 546.547C118.741 547.147 117.606 547.345 116 547.345ZM116 546.302C117.387 546.302 118.337 546.136 118.939 545.709C119.948 544.992 120.531 543.556 120.531 541.956C120.531 540.768 119.96 539.239 119.228 538.488C118.558 537.801 117.743 537.61 116 537.61C114.184 537.61 113.143 537.922 112.444 538.796C111.896 539.483 111.469 540.894 111.469 541.956C111.469 543.324 111.955 544.678 112.749 545.402C113.439 546.03 114.517 546.302 116 546.302Z" fill="#291C85"/>
<path d="M382.8 396.636H319.725C318.524 396.636 317.55 397.569 317.55 398.722C317.55 399.874 318.524 400.808 319.725 400.808H382.8C384.001 400.808 384.975 399.874 384.975 398.722C384.975 397.569 384.001 396.636 382.8 396.636Z" fill="white"/>
<path d="M319.725 396.636H382.8C384.001 396.636 384.975 397.569 384.975 398.722C384.975 399.874 384.001 400.808 382.8 400.808H319.725C318.524 400.808 317.55 399.874 317.55 398.722C317.55 397.569 318.524 396.636 319.725 396.636ZM319.725 397.679C319.125 397.679 318.638 398.146 318.638 398.722C318.638 399.297 319.125 399.765 319.725 399.765H382.8C383.4 399.765 383.888 399.297 383.888 398.722C383.888 398.146 383.4 397.679 382.8 397.679H319.725Z" fill="#291C85"/>
<path d="M224.933 682.226L196.298 628.328C195.889 627.557 194.907 627.251 194.104 627.643C193.302 628.036 192.982 628.978 193.392 629.748L222.027 683.647C222.436 684.416 223.418 684.723 224.221 684.33C225.023 683.938 225.342 682.996 224.933 682.226Z" fill="white" stroke="#291C85" stroke-width="1.5"/>
<path fill-rule="evenodd" clip-rule="evenodd" d="M207.435 543.561C205.369 545.24 195.689 538.112 193.618 537.272C192.506 536.82 191.985 535.588 192.456 534.521C192.888 533.543 194.014 533.028 195.078 533.322C201.438 535.084 205.023 536.36 205.833 537.153C207.888 539.164 209.5 541.882 207.435 543.561Z" fill="white"/>
<path fill-rule="evenodd" clip-rule="evenodd" d="M256.162 590.959L277.816 577.804C278.154 577.598 278.602 577.695 278.816 578.02C278.821 578.027 278.826 578.036 278.831 578.043L287.117 591.792C287.31 592.114 287.207 592.524 286.882 592.725L265.615 605.884C265.278 606.092 264.829 606 264.613 605.676C264.609 605.671 264.605 605.665 264.601 605.66L255.93 591.906C255.726 591.582 255.829 591.161 256.162 590.959Z" fill="white"/>
<path d="M255.143 591.169L277.892 577.536C278.232 577.333 278.679 577.431 278.891 577.758L288.112 591.909C288.324 592.235 288.221 592.664 287.881 592.867L265.132 606.5C264.793 606.704 264.346 606.605 264.133 606.279L254.913 592.128C254.7 591.802 254.804 591.373 255.143 591.169ZM256.027 591.87L264.863 605.432L286.998 592.167L278.161 578.605L256.027 591.87Z" fill="#291C85"/>
<path d="M260.623 591.382L275.379 582.539C275.719 582.336 276.166 582.435 276.378 582.76L282.525 592.195C282.738 592.521 282.634 592.95 282.295 593.153L267.539 601.996C267.199 602.199 266.752 602.1 266.54 601.775L260.393 592.34C260.18 592.014 260.284 591.585 260.623 591.382ZM267.27 600.927L281.411 592.452L275.648 583.608L261.507 592.082L267.27 600.927Z" fill="#291C85"/>
<path d="M151.286 190.175C149.67 190.175 148.178 189.8 146.811 189.05C145.461 188.283 144.386 187.225 143.586 185.875C142.803 184.508 142.411 182.975 142.411 181.275C142.411 179.575 142.803 178.05 143.586 176.7C144.386 175.35 145.461 174.3 146.811 173.55C148.178 172.783 149.67 172.4 151.286 172.4C152.92 172.4 154.411 172.783 155.761 173.55C157.128 174.3 158.203 175.35 158.986 176.7C159.77 178.05 160.161 179.575 160.161 181.275C160.161 182.975 159.77 184.508 158.986 185.875C158.203 187.225 157.128 188.283 155.761 189.05C154.411 189.8 152.92 190.175 151.286 190.175ZM151.286 187.7C152.436 187.7 153.461 187.442 154.361 186.925C155.261 186.392 155.961 185.642 156.461 184.675C156.978 183.692 157.236 182.558 157.236 181.275C157.236 179.992 156.978 178.867 156.461 177.9C155.961 176.933 155.261 176.192 154.361 175.675C153.461 175.158 152.436 174.9 151.286 174.9C150.136 174.9 149.111 175.158 148.211 175.675C147.311 176.192 146.603 176.933 146.086 177.9C145.586 178.867 145.336 179.992 145.336 181.275C145.336 182.558 145.586 183.692 146.086 184.675C146.603 185.642 147.311 186.392 148.211 186.925C149.111 187.442 150.136 187.7 151.286 187.7ZM168.941 190.225C167.641 190.225 166.466 189.933 165.416 189.35C164.366 188.75 163.541 187.917 162.941 186.85C162.341 185.767 162.041 184.517 162.041 183.1C162.041 181.7 162.349 180.458 162.966 179.375C163.582 178.292 164.424 177.458 165.491 176.875C166.557 176.292 167.749 176 169.066 176C170.382 176 171.574 176.292 172.641 176.875C173.707 177.458 174.549 178.292 175.166 179.375C175.782 180.458 176.091 181.7 176.091 183.1C176.091 184.5 175.774 185.742 175.141 186.825C174.507 187.908 173.641 188.75 172.541 189.35C171.457 189.933 170.257 190.225 168.941 190.225ZM168.941 187.75C169.674 187.75 170.357 187.575 170.991 187.225C171.641 186.875 172.166 186.35 172.566 185.65C172.966 184.95 173.166 184.1 173.166 183.1C173.166 182.1 172.974 181.258 172.591 180.575C172.207 179.875 171.699 179.35 171.066 179C170.432 178.65 169.749 178.475 169.016 178.475C168.282 178.475 167.599 178.65 166.966 179C166.349 179.35 165.857 179.875 165.491 180.575C165.124 181.258 164.941 182.1 164.941 183.1C164.941 184.583 165.316 185.733 166.066 186.55C166.832 187.35 167.791 187.75 168.941 187.75ZM184.883 190.225C183.583 190.225 182.408 189.933 181.358 189.35C180.308 188.75 179.483 187.917 178.883 186.85C178.283 185.767 177.983 184.517 177.983 183.1C177.983 181.7 178.292 180.458 178.908 179.375C179.525 178.292 180.367 177.458 181.433 176.875C182.5 176.292 183.692 176 185.008 176C186.325 176 187.517 176.292 188.583 176.875C189.65 177.458 190.492 178.292 191.108 179.375C191.725 180.458 192.033 181.7 192.033 183.1C192.033 184.5 191.717 185.742 191.083 186.825C190.45 187.908 189.583 188.75 188.483 189.35C187.4 189.933 186.2 190.225 184.883 190.225ZM184.883 187.75C185.617 187.75 186.3 187.575 186.933 187.225C187.583 186.875 188.108 186.35 188.508 185.65C188.908 184.95 189.108 184.1 189.108 183.1C189.108 182.1 188.917 181.258 188.533 180.575C188.15 179.875 187.642 179.35 187.008 179C186.375 178.65 185.692 178.475 184.958 178.475C184.225 178.475 183.542 178.65 182.908 179C182.292 179.35 181.8 179.875 181.433 180.575C181.067 181.258 180.883 182.1 180.883 183.1C180.883 184.583 181.258 185.733 182.008 186.55C182.775 187.35 183.733 187.75 184.883 187.75ZM199.851 190.225C198.767 190.225 197.792 190.033 196.926 189.65C196.076 189.25 195.401 188.717 194.901 188.05C194.401 187.367 194.134 186.608 194.101 185.775H197.051C197.101 186.358 197.376 186.85 197.876 187.25C198.392 187.633 199.034 187.825 199.801 187.825C200.601 187.825 201.217 187.675 201.651 187.375C202.101 187.058 202.326 186.658 202.326 186.175C202.326 185.658 202.076 185.275 201.576 185.025C201.092 184.775 200.317 184.5 199.251 184.2C198.217 183.917 197.376 183.642 196.726 183.375C196.076 183.108 195.509 182.7 195.026 182.15C194.559 181.6 194.326 180.875 194.326 179.975C194.326 179.242 194.542 178.575 194.976 177.975C195.409 177.358 196.026 176.875 196.826 176.525C197.642 176.175 198.576 176 199.626 176C201.192 176 202.451 176.4 203.401 177.2C204.367 177.983 204.884 179.058 204.951 180.425H202.101C202.051 179.808 201.801 179.317 201.351 178.95C200.901 178.583 200.292 178.4 199.526 178.4C198.776 178.4 198.201 178.542 197.801 178.825C197.401 179.108 197.201 179.483 197.201 179.95C197.201 180.317 197.334 180.625 197.601 180.875C197.867 181.125 198.192 181.325 198.576 181.475C198.959 181.608 199.526 181.783 200.276 182C201.276 182.267 202.092 182.542 202.726 182.825C203.376 183.092 203.934 183.492 204.401 184.025C204.867 184.558 205.109 185.267 205.126 186.15C205.126 186.933 204.909 187.633 204.476 188.25C204.042 188.867 203.426 189.35 202.626 189.7C201.842 190.05 200.917 190.225 199.851 190.225ZM211.78 172.625L211.455 184.75H209.08L208.755 172.625H211.78ZM210.355 190.175C209.838 190.175 209.405 190 209.055 189.65C208.705 189.3 208.53 188.867 208.53 188.35C208.53 187.833 208.705 187.4 209.055 187.05C209.405 186.7 209.838 186.525 210.355 186.525C210.855 186.525 211.28 186.7 211.63 187.05C211.98 187.4 212.155 187.833 212.155 188.35C212.155 188.867 211.98 189.3 211.63 189.65C211.28 190 210.855 190.175 210.355 190.175ZM234.881 177.8C234.881 178.683 234.673 179.517 234.256 180.3C233.84 181.083 233.173 181.725 232.256 182.225C231.34 182.708 230.165 182.95 228.731 182.95H225.581V190H222.731V172.625H228.731C230.065 172.625 231.19 172.858 232.106 173.325C233.04 173.775 233.731 174.392 234.181 175.175C234.648 175.958 234.881 176.833 234.881 177.8ZM228.731 180.625C229.815 180.625 230.623 180.383 231.156 179.9C231.69 179.4 231.956 178.7 231.956 177.8C231.956 175.9 230.881 174.95 228.731 174.95H225.581V180.625H228.731ZM236.65 183.05C236.65 181.667 236.933 180.442 237.5 179.375C238.083 178.308 238.866 177.483 239.85 176.9C240.85 176.3 241.95 176 243.15 176C244.233 176 245.175 176.217 245.975 176.65C246.791 177.067 247.441 177.592 247.925 178.225V176.225H250.8V190H247.925V187.95C247.441 188.6 246.783 189.142 245.95 189.575C245.116 190.008 244.166 190.225 243.1 190.225C241.916 190.225 240.833 189.925 239.85 189.325C238.866 188.708 238.083 187.858 237.5 186.775C236.933 185.675 236.65 184.433 236.65 183.05ZM247.925 183.1C247.925 182.15 247.725 181.325 247.325 180.625C246.941 179.925 246.433 179.392 245.8 179.025C245.166 178.658 244.483 178.475 243.75 178.475C243.016 178.475 242.333 178.658 241.7 179.025C241.066 179.375 240.55 179.9 240.15 180.6C239.766 181.283 239.575 182.1 239.575 183.05C239.575 184 239.766 184.833 240.15 185.55C240.55 186.267 241.066 186.817 241.7 187.2C242.35 187.567 243.033 187.75 243.75 187.75C244.483 187.75 245.166 187.567 245.8 187.2C246.433 186.833 246.941 186.3 247.325 185.6C247.725 184.883 247.925 184.05 247.925 183.1ZM257.393 178.225C257.81 177.525 258.36 176.983 259.043 176.6C259.743 176.2 260.568 176 261.518 176V178.95H260.793C259.676 178.95 258.826 179.233 258.243 179.8C257.676 180.367 257.393 181.35 257.393 182.75V190H254.543V176.225H257.393V178.225ZM276.763 182.775C276.763 183.292 276.729 183.758 276.663 184.175H266.138C266.221 185.275 266.629 186.158 267.363 186.825C268.096 187.492 268.996 187.825 270.063 187.825C271.596 187.825 272.679 187.183 273.313 185.9H276.388C275.971 187.167 275.213 188.208 274.113 189.025C273.029 189.825 271.679 190.225 270.063 190.225C268.746 190.225 267.563 189.933 266.513 189.35C265.479 188.75 264.663 187.917 264.063 186.85C263.479 185.767 263.188 184.517 263.188 183.1C263.188 181.683 263.471 180.442 264.038 179.375C264.621 178.292 265.429 177.458 266.463 176.875C267.513 176.292 268.713 176 270.063 176C271.363 176 272.521 176.283 273.538 176.85C274.554 177.417 275.346 178.217 275.913 179.25C276.479 180.267 276.763 181.442 276.763 182.775ZM273.788 181.875C273.771 180.825 273.396 179.983 272.663 179.35C271.929 178.717 271.021 178.4 269.938 178.4C268.954 178.4 268.113 178.717 267.413 179.35C266.713 179.967 266.296 180.808 266.163 181.875H273.788ZM278.617 183.1C278.617 181.683 278.901 180.442 279.467 179.375C280.051 178.292 280.851 177.458 281.867 176.875C282.884 176.292 284.051 176 285.367 176C287.034 176 288.409 176.4 289.492 177.2C290.592 177.983 291.334 179.108 291.717 180.575H288.642C288.392 179.892 287.992 179.358 287.442 178.975C286.892 178.592 286.201 178.4 285.367 178.4C284.201 178.4 283.267 178.817 282.567 179.65C281.884 180.467 281.542 181.617 281.542 183.1C281.542 184.583 281.884 185.742 282.567 186.575C283.267 187.408 284.201 187.825 285.367 187.825C287.017 187.825 288.109 187.1 288.642 185.65H291.717C291.317 187.05 290.567 188.167 289.467 189C288.367 189.817 287.001 190.225 285.367 190.225C284.051 190.225 282.884 189.933 281.867 189.35C280.851 188.75 280.051 187.917 279.467 186.85C278.901 185.767 278.617 184.517 278.617 183.1ZM307.183 182.775C307.183 183.292 307.149 183.758 307.083 184.175H296.558C296.641 185.275 297.049 186.158 297.783 186.825C298.516 187.492 299.416 187.825 300.483 187.825C302.016 187.825 303.099 187.183 303.733 185.9H306.808C306.391 187.167 305.633 188.208 304.533 189.025C303.449 189.825 302.099 190.225 300.483 190.225C299.166 190.225 297.983 189.933 296.933 189.35C295.899 188.75 295.083 187.917 294.483 186.85C293.899 185.767 293.608 184.517 293.608 183.1C293.608 181.683 293.891 180.442 294.458 179.375C295.041 178.292 295.849 177.458 296.883 176.875C297.933 176.292 299.133 176 300.483 176C301.783 176 302.941 176.283 303.958 176.85C304.974 177.417 305.766 178.217 306.333 179.25C306.899 180.267 307.183 181.442 307.183 182.775ZM304.208 181.875C304.191 180.825 303.816 179.983 303.083 179.35C302.349 178.717 301.441 178.4 300.358 178.4C299.374 178.4 298.533 178.717 297.833 179.35C297.133 179.967 296.716 180.808 296.583 181.875H304.208ZM315.531 183.05C315.531 181.667 315.815 180.442 316.381 179.375C316.965 178.308 317.748 177.483 318.731 176.9C319.731 176.3 320.84 176 322.056 176C323.123 176 324.065 176.217 324.881 176.65C325.715 177.083 326.356 177.608 326.806 178.225V176.225H329.681V196.55H326.806V188C326.356 188.617 325.706 189.142 324.856 189.575C324.006 190.008 323.04 190.225 321.956 190.225C320.773 190.225 319.69 189.925 318.706 189.325C317.74 188.708 316.965 187.858 316.381 186.775C315.815 185.675 315.531 184.433 315.531 183.05ZM326.806 183.1C326.806 182.15 326.606 181.325 326.206 180.625C325.823 179.925 325.315 179.392 324.681 179.025C324.048 178.658 323.365 178.475 322.631 178.475C321.898 178.475 321.215 178.658 320.581 179.025C319.948 179.375 319.431 179.9 319.031 180.6C318.648 181.283 318.456 182.1 318.456 183.05C318.456 184 318.648 184.833 319.031 185.55C319.431 186.267 319.948 186.817 320.581 187.2C321.231 187.567 321.915 187.75 322.631 187.75C323.365 187.75 324.048 187.567 324.681 187.2C325.315 186.833 325.823 186.3 326.206 185.6C326.606 184.883 326.806 184.05 326.806 183.1ZM345.9 176.225V190H343.05V188.375C342.6 188.942 342.008 189.392 341.275 189.725C340.558 190.042 339.791 190.2 338.975 190.2C337.891 190.2 336.916 189.975 336.05 189.525C335.2 189.075 334.525 188.408 334.025 187.525C333.541 186.642 333.3 185.575 333.3 184.325V176.225H336.125V183.9C336.125 185.133 336.433 186.083 337.05 186.75C337.666 187.4 338.508 187.725 339.575 187.725C340.641 187.725 341.483 187.4 342.1 186.75C342.733 186.083 343.05 185.133 343.05 183.9V176.225H345.9ZM362.285 182.775C362.285 183.292 362.252 183.758 362.185 184.175H351.66C351.743 185.275 352.152 186.158 352.885 186.825C353.618 187.492 354.518 187.825 355.585 187.825C357.118 187.825 358.202 187.183 358.835 185.9H361.91C361.493 187.167 360.735 188.208 359.635 189.025C358.552 189.825 357.202 190.225 355.585 190.225C354.268 190.225 353.085 189.933 352.035 189.35C351.002 188.75 350.185 187.917 349.585 186.85C349.002 185.767 348.71 184.517 348.71 183.1C348.71 181.683 348.993 180.442 349.56 179.375C350.143 178.292 350.952 177.458 351.985 176.875C353.035 176.292 354.235 176 355.585 176C356.885 176 358.043 176.283 359.06 176.85C360.077 177.417 360.868 178.217 361.435 179.25C362.002 180.267 362.285 181.442 362.285 182.775ZM359.31 181.875C359.293 180.825 358.918 179.983 358.185 179.35C357.452 178.717 356.543 178.4 355.46 178.4C354.477 178.4 353.635 178.717 352.935 179.35C352.235 179.967 351.818 180.808 351.685 181.875H359.31ZM378.534 176C379.617 176 380.584 176.225 381.434 176.675C382.301 177.125 382.976 177.792 383.459 178.675C383.942 179.558 384.184 180.625 384.184 181.875V190H381.359V182.3C381.359 181.067 381.051 180.125 380.434 179.475C379.817 178.808 378.976 178.475 377.909 178.475C376.842 178.475 375.992 178.808 375.359 179.475C374.742 180.125 374.434 181.067 374.434 182.3V190H371.584V176.225H374.434V177.8C374.901 177.233 375.492 176.792 376.209 176.475C376.942 176.158 377.717 176 378.534 176ZM393.794 190.225C392.494 190.225 391.319 189.933 390.269 189.35C389.219 188.75 388.394 187.917 387.794 186.85C387.194 185.767 386.894 184.517 386.894 183.1C386.894 181.7 387.203 180.458 387.819 179.375C388.436 178.292 389.278 177.458 390.344 176.875C391.411 176.292 392.603 176 393.919 176C395.236 176 396.428 176.292 397.494 176.875C398.561 177.458 399.403 178.292 400.019 179.375C400.636 180.458 400.944 181.7 400.944 183.1C400.944 184.5 400.628 185.742 399.994 186.825C399.361 187.908 398.494 188.75 397.394 189.35C396.311 189.933 395.111 190.225 393.794 190.225ZM393.794 187.75C394.528 187.75 395.211 187.575 395.844 187.225C396.494 186.875 397.019 186.35 397.419 185.65C397.819 184.95 398.019 184.1 398.019 183.1C398.019 182.1 397.828 181.258 397.444 180.575C397.061 179.875 396.553 179.35 395.919 179C395.286 178.65 394.603 178.475 393.869 178.475C393.136 178.475 392.453 178.65 391.819 179C391.203 179.35 390.711 179.875 390.344 180.575C389.978 181.258 389.794 182.1 389.794 183.1C389.794 184.583 390.169 185.733 390.919 186.55C391.686 187.35 392.644 187.75 393.794 187.75ZM408.762 190.225C407.678 190.225 406.703 190.033 405.837 189.65C404.987 189.25 404.312 188.717 403.812 188.05C403.312 187.367 403.045 186.608 403.012 185.775H405.962C406.012 186.358 406.287 186.85 406.787 187.25C407.303 187.633 407.945 187.825 408.712 187.825C409.512 187.825 410.128 187.675 410.562 187.375C411.012 187.058 411.237 186.658 411.237 186.175C411.237 185.658 410.987 185.275 410.487 185.025C410.003 184.775 409.228 184.5 408.162 184.2C407.128 183.917 406.287 183.642 405.637 183.375C404.987 183.108 404.42 182.7 403.937 182.15C403.47 181.6 403.237 180.875 403.237 179.975C403.237 179.242 403.453 178.575 403.887 177.975C404.32 177.358 404.937 176.875 405.737 176.525C406.553 176.175 407.487 176 408.537 176C410.103 176 411.362 176.4 412.312 177.2C413.278 177.983 413.795 179.058 413.862 180.425H411.012C410.962 179.808 410.712 179.317 410.262 178.95C409.812 178.583 409.203 178.4 408.437 178.4C407.687 178.4 407.112 178.542 406.712 178.825C406.312 179.108 406.112 179.483 406.112 179.95C406.112 180.317 406.245 180.625 406.512 180.875C406.778 181.125 407.103 181.325 407.487 181.475C407.87 181.608 408.437 181.783 409.187 182C410.187 182.267 411.003 182.542 411.637 182.825C412.287 183.092 412.845 183.492 413.312 184.025C413.778 184.558 414.02 185.267 414.037 186.15C414.037 186.933 413.82 187.633 413.387 188.25C412.953 188.867 412.337 189.35 411.537 189.7C410.753 190.05 409.828 190.225 408.762 190.225ZM422.116 190.225C421.033 190.225 420.058 190.033 419.191 189.65C418.341 189.25 417.666 188.717 417.166 188.05C416.666 187.367 416.4 186.608 416.366 185.775H419.316C419.366 186.358 419.641 186.85 420.141 187.25C420.658 187.633 421.3 187.825 422.066 187.825C422.866 187.825 423.483 187.675 423.916 187.375C424.366 187.058 424.591 186.658 424.591 186.175C424.591 185.658 424.341 185.275 423.841 185.025C423.358 184.775 422.583 184.5 421.516 184.2C420.483 183.917 419.641 183.642 418.991 183.375C418.341 183.108 417.775 182.7 417.291 182.15C416.825 181.6 416.591 180.875 416.591 179.975C416.591 179.242 416.808 178.575 417.241 177.975C417.675 177.358 418.291 176.875 419.091 176.525C419.908 176.175 420.841 176 421.891 176C423.458 176 424.716 176.4 425.666 177.2C426.633 177.983 427.15 179.058 427.216 180.425H424.366C424.316 179.808 424.066 179.317 423.616 178.95C423.166 178.583 422.558 178.4 421.791 178.4C421.041 178.4 420.466 178.542 420.066 178.825C419.666 179.108 419.466 179.483 419.466 179.95C419.466 180.317 419.6 180.625 419.866 180.875C420.133 181.125 420.458 181.325 420.841 181.475C421.225 181.608 421.791 181.783 422.541 182C423.541 182.267 424.358 182.542 424.991 182.825C425.641 183.092 426.2 183.492 426.666 184.025C427.133 184.558 427.375 185.267 427.391 186.15C427.391 186.933 427.175 187.633 426.741 188.25C426.308 188.867 425.691 189.35 424.891 189.7C424.108 190.05 423.183 190.225 422.116 190.225ZM436.446 190.225C435.146 190.225 433.971 189.933 432.921 189.35C431.871 188.75 431.046 187.917 430.446 186.85C429.846 185.767 429.546 184.517 429.546 183.1C429.546 181.7 429.854 180.458 430.471 179.375C431.087 178.292 431.929 177.458 432.996 176.875C434.062 176.292 435.254 176 436.571 176C437.887 176 439.079 176.292 440.146 176.875C441.212 177.458 442.054 178.292 442.671 179.375C443.287 180.458 443.596 181.7 443.596 183.1C443.596 184.5 443.279 185.742 442.646 186.825C442.012 187.908 441.146 188.75 440.046 189.35C438.962 189.933 437.762 190.225 436.446 190.225ZM436.446 187.75C437.179 187.75 437.862 187.575 438.496 187.225C439.146 186.875 439.671 186.35 440.071 185.65C440.471 184.95 440.671 184.1 440.671 183.1C440.671 182.1 440.479 181.258 440.096 180.575C439.712 179.875 439.204 179.35 438.571 179C437.937 178.65 437.254 178.475 436.521 178.475C435.787 178.475 435.104 178.65 434.471 179C433.854 179.35 433.362 179.875 432.996 180.575C432.629 181.258 432.446 182.1 432.446 183.1C432.446 184.583 432.821 185.733 433.571 186.55C434.337 187.35 435.296 187.75 436.446 187.75ZM451.413 190.225C450.33 190.225 449.355 190.033 448.488 189.65C447.638 189.25 446.963 188.717 446.463 188.05C445.963 187.367 445.696 186.608 445.663 185.775H448.613C448.663 186.358 448.938 186.85 449.438 187.25C449.955 187.633 450.596 187.825 451.363 187.825C452.163 187.825 452.78 187.675 453.213 187.375C453.663 187.058 453.888 186.658 453.888 186.175C453.888 185.658 453.638 185.275 453.138 185.025C452.655 184.775 451.88 184.5 450.813 184.2C449.78 183.917 448.938 183.642 448.288 183.375C447.638 183.108 447.071 182.7 446.588 182.15C446.121 181.6 445.888 180.875 445.888 179.975C445.888 179.242 446.105 178.575 446.538 177.975C446.971 177.358 447.588 176.875 448.388 176.525C449.205 176.175 450.138 176 451.188 176C452.755 176 454.013 176.4 454.963 177.2C455.93 177.983 456.446 179.058 456.513 180.425H453.663C453.613 179.808 453.363 179.317 452.913 178.95C452.463 178.583 451.855 178.4 451.088 178.4C450.338 178.4 449.763 178.542 449.363 178.825C448.963 179.108 448.763 179.483 448.763 179.95C448.763 180.317 448.896 180.625 449.163 180.875C449.43 181.125 449.755 181.325 450.138 181.475C450.521 181.608 451.088 181.783 451.838 182C452.838 182.267 453.655 182.542 454.288 182.825C454.938 183.092 455.496 183.492 455.963 184.025C456.43 184.558 456.671 185.267 456.688 186.15C456.688 186.933 456.471 187.633 456.038 188.25C455.605 188.867 454.988 189.35 454.188 189.7C453.405 190.05 452.48 190.225 451.413 190.225ZM465.312 183.05C465.312 181.667 465.595 180.442 466.162 179.375C466.745 178.308 467.528 177.483 468.512 176.9C469.512 176.3 470.62 176 471.837 176C472.737 176 473.62 176.2 474.487 176.6C475.37 176.983 476.07 177.5 476.587 178.15V171.5H479.462V190H476.587V187.925C476.12 188.592 475.47 189.142 474.637 189.575C473.82 190.008 472.878 190.225 471.812 190.225C470.612 190.225 469.512 189.925 468.512 189.325C467.528 188.708 466.745 187.858 466.162 186.775C465.595 185.675 465.312 184.433 465.312 183.05ZM476.587 183.1C476.587 182.15 476.387 181.325 475.987 180.625C475.603 179.925 475.095 179.392 474.462 179.025C473.828 178.658 473.145 178.475 472.412 178.475C471.678 178.475 470.995 178.658 470.362 179.025C469.728 179.375 469.212 179.9 468.812 180.6C468.428 181.283 468.237 182.1 468.237 183.05C468.237 184 468.428 184.833 468.812 185.55C469.212 186.267 469.728 186.817 470.362 187.2C471.012 187.567 471.695 187.75 472.412 187.75C473.145 187.75 473.828 187.567 474.462 187.2C475.095 186.833 475.603 186.3 475.987 185.6C476.387 184.883 476.587 184.05 476.587 183.1ZM482.255 183.05C482.255 181.667 482.538 180.442 483.105 179.375C483.688 178.308 484.472 177.483 485.455 176.9C486.455 176.3 487.555 176 488.755 176C489.838 176 490.78 176.217 491.58 176.65C492.397 177.067 493.047 177.592 493.53 178.225V176.225H496.405V190H493.53V187.95C493.047 188.6 492.388 189.142 491.555 189.575C490.722 190.008 489.772 190.225 488.705 190.225C487.522 190.225 486.438 189.925 485.455 189.325C484.472 188.708 483.688 187.858 483.105 186.775C482.538 185.675 482.255 184.433 482.255 183.05ZM493.53 183.1C493.53 182.15 493.33 181.325 492.93 180.625C492.547 179.925 492.038 179.392 491.405 179.025C490.772 178.658 490.088 178.475 489.355 178.475C488.622 178.475 487.938 178.658 487.305 179.025C486.672 179.375 486.155 179.9 485.755 180.6C485.372 181.283 485.18 182.1 485.18 183.05C485.18 184 485.372 184.833 485.755 185.55C486.155 186.267 486.672 186.817 487.305 187.2C487.955 187.567 488.638 187.75 489.355 187.75C490.088 187.75 490.772 187.567 491.405 187.2C492.038 186.833 492.547 186.3 492.93 185.6C493.33 184.883 493.53 184.05 493.53 183.1ZM499.198 183.05C499.198 181.667 499.482 180.442 500.048 179.375C500.632 178.308 501.415 177.483 502.398 176.9C503.398 176.3 504.507 176 505.723 176C506.623 176 507.507 176.2 508.373 176.6C509.257 176.983 509.957 177.5 510.473 178.15V171.5H513.348V190H510.473V187.925C510.007 188.592 509.357 189.142 508.523 189.575C507.707 190.008 506.765 190.225 505.698 190.225C504.498 190.225 503.398 189.925 502.398 189.325C501.415 188.708 500.632 187.858 500.048 186.775C499.482 185.675 499.198 184.433 499.198 183.05ZM510.473 183.1C510.473 182.15 510.273 181.325 509.873 180.625C509.49 179.925 508.982 179.392 508.348 179.025C507.715 178.658 507.032 178.475 506.298 178.475C505.565 178.475 504.882 178.658 504.248 179.025C503.615 179.375 503.098 179.9 502.698 180.6C502.315 181.283 502.123 182.1 502.123 183.05C502.123 184 502.315 184.833 502.698 185.55C503.098 186.267 503.615 186.817 504.248 187.2C504.898 187.567 505.582 187.75 506.298 187.75C507.032 187.75 507.715 187.567 508.348 187.2C508.982 186.833 509.49 186.3 509.873 185.6C510.273 184.883 510.473 184.05 510.473 183.1ZM523.067 190.225C521.767 190.225 520.592 189.933 519.542 189.35C518.492 188.75 517.667 187.917 517.067 186.85C516.467 185.767 516.167 184.517 516.167 183.1C516.167 181.7 516.475 180.458 517.092 179.375C517.708 178.292 518.55 177.458 519.617 176.875C520.683 176.292 521.875 176 523.192 176C524.508 176 525.7 176.292 526.767 176.875C527.833 177.458 528.675 178.292 529.292 179.375C529.908 180.458 530.217 181.7 530.217 183.1C530.217 184.5 529.9 185.742 529.267 186.825C528.633 187.908 527.767 188.75 526.667 189.35C525.583 189.933 524.383 190.225 523.067 190.225ZM523.067 187.75C523.8 187.75 524.483 187.575 525.117 187.225C525.767 186.875 526.292 186.35 526.692 185.65C527.092 184.95 527.292 184.1 527.292 183.1C527.292 182.1 527.1 181.258 526.717 180.575C526.333 179.875 525.825 179.35 525.192 179C524.558 178.65 523.875 178.475 523.142 178.475C522.408 178.475 521.725 178.65 521.092 179C520.475 179.35 519.983 179.875 519.617 180.575C519.25 181.258 519.067 182.1 519.067 183.1C519.067 184.583 519.442 185.733 520.192 186.55C520.958 187.35 521.917 187.75 523.067 187.75ZM538.034 190.225C536.951 190.225 535.976 190.033 535.109 189.65C534.259 189.25 533.584 188.717 533.084 188.05C532.584 187.367 532.318 186.608 532.284 185.775H535.234C535.284 186.358 535.559 186.85 536.059 187.25C536.576 187.633 537.218 187.825 537.984 187.825C538.784 187.825 539.401 187.675 539.834 187.375C540.284 187.058 540.509 186.658 540.509 186.175C540.509 185.658 540.259 185.275 539.759 185.025C539.276 184.775 538.501 184.5 537.434 184.2C536.401 183.917 535.559 183.642 534.909 183.375C534.259 183.108 533.693 182.7 533.209 182.15C532.743 181.6 532.509 180.875 532.509 179.975C532.509 179.242 532.726 178.575 533.159 177.975C533.593 177.358 534.209 176.875 535.009 176.525C535.826 176.175 536.759 176 537.809 176C539.376 176 540.634 176.4 541.584 177.2C542.551 177.983 543.068 179.058 543.134 180.425H540.284C540.234 179.808 539.984 179.317 539.534 178.95C539.084 178.583 538.476 178.4 537.709 178.4C536.959 178.4 536.384 178.542 535.984 178.825C535.584 179.108 535.384 179.483 535.384 179.95C535.384 180.317 535.518 180.625 535.784 180.875C536.051 181.125 536.376 181.325 536.759 181.475C537.143 181.608 537.709 181.783 538.459 182C539.459 182.267 540.276 182.542 540.909 182.825C541.559 183.092 542.118 183.492 542.584 184.025C543.051 184.558 543.293 185.267 543.309 186.15C543.309 186.933 543.093 187.633 542.659 188.25C542.226 188.867 541.609 189.35 540.809 189.7C540.026 190.05 539.101 190.225 538.034 190.225ZM168.242 220.775C168.242 221.292 168.209 221.758 168.142 222.175H157.617C157.701 223.275 158.109 224.158 158.842 224.825C159.576 225.492 160.476 225.825 161.542 225.825C163.076 225.825 164.159 225.183 164.792 223.9H167.867C167.451 225.167 166.692 226.208 165.592 227.025C164.509 227.825 163.159 228.225 161.542 228.225C160.226 228.225 159.042 227.933 157.992 227.35C156.959 226.75 156.142 225.917 155.542 224.85C154.959 223.767 154.667 222.517 154.667 221.1C154.667 219.683 154.951 218.442 155.517 217.375C156.101 216.292 156.909 215.458 157.942 214.875C158.992 214.292 160.192 214 161.542 214C162.842 214 164.001 214.283 165.017 214.85C166.034 215.417 166.826 216.217 167.392 217.25C167.959 218.267 168.242 219.442 168.242 220.775ZM165.267 219.875C165.251 218.825 164.876 217.983 164.142 217.35C163.409 216.717 162.501 216.4 161.417 216.4C160.434 216.4 159.592 216.717 158.892 217.35C158.192 217.967 157.776 218.808 157.642 219.875H165.267ZM177.997 214C179.08 214 180.047 214.225 180.897 214.675C181.764 215.125 182.439 215.792 182.922 216.675C183.405 217.558 183.647 218.625 183.647 219.875V228H180.822V220.3C180.822 219.067 180.514 218.125 179.897 217.475C179.28 216.808 178.439 216.475 177.372 216.475C176.305 216.475 175.455 216.808 174.822 217.475C174.205 218.125 173.897 219.067 173.897 220.3V228H171.047V214.225H173.897V215.8C174.364 215.233 174.955 214.792 175.672 214.475C176.405 214.158 177.18 214 177.997 214ZM186.332 221.1C186.332 219.683 186.616 218.442 187.182 217.375C187.766 216.292 188.566 215.458 189.582 214.875C190.599 214.292 191.766 214 193.082 214C194.749 214 196.124 214.4 197.207 215.2C198.307 215.983 199.049 217.108 199.432 218.575H196.357C196.107 217.892 195.707 217.358 195.157 216.975C194.607 216.592 193.916 216.4 193.082 216.4C191.916 216.4 190.982 216.817 190.282 217.65C189.599 218.467 189.257 219.617 189.257 221.1C189.257 222.583 189.599 223.742 190.282 224.575C190.982 225.408 191.916 225.825 193.082 225.825C194.732 225.825 195.824 225.1 196.357 223.65H199.432C199.032 225.05 198.282 226.167 197.182 227C196.082 227.817 194.716 228.225 193.082 228.225C191.766 228.225 190.599 227.933 189.582 227.35C188.566 226.75 187.766 225.917 187.182 224.85C186.616 223.767 186.332 222.517 186.332 221.1ZM208.247 228.225C206.947 228.225 205.772 227.933 204.722 227.35C203.672 226.75 202.847 225.917 202.247 224.85C201.647 223.767 201.347 222.517 201.347 221.1C201.347 219.7 201.656 218.458 202.272 217.375C202.889 216.292 203.731 215.458 204.797 214.875C205.864 214.292 207.056 214 208.372 214C209.689 214 210.881 214.292 211.947 214.875C213.014 215.458 213.856 216.292 214.472 217.375C215.089 218.458 215.397 219.7 215.397 221.1C215.397 222.5 215.081 223.742 214.447 224.825C213.814 225.908 212.947 226.75 211.847 227.35C210.764 227.933 209.564 228.225 208.247 228.225ZM208.247 225.75C208.981 225.75 209.664 225.575 210.297 225.225C210.947 224.875 211.472 224.35 211.872 223.65C212.272 222.95 212.472 222.1 212.472 221.1C212.472 220.1 212.281 219.258 211.897 218.575C211.514 217.875 211.006 217.35 210.372 217C209.739 216.65 209.056 216.475 208.322 216.475C207.589 216.475 206.906 216.65 206.272 217C205.656 217.35 205.164 217.875 204.797 218.575C204.431 219.258 204.247 220.1 204.247 221.1C204.247 222.583 204.622 223.733 205.372 224.55C206.139 225.35 207.097 225.75 208.247 225.75ZM225.165 214C226.248 214 227.215 214.225 228.065 214.675C228.932 215.125 229.607 215.792 230.09 216.675C230.573 217.558 230.815 218.625 230.815 219.875V228H227.99V220.3C227.99 219.067 227.682 218.125 227.065 217.475C226.448 216.808 225.607 216.475 224.54 216.475C223.473 216.475 222.623 216.808 221.99 217.475C221.373 218.125 221.065 219.067 221.065 220.3V228H218.215V214.225H221.065V215.8C221.532 215.233 222.123 214.792 222.84 214.475C223.573 214.158 224.348 214 225.165 214ZM237.775 216.55V224.175C237.775 224.692 237.892 225.067 238.125 225.3C238.375 225.517 238.792 225.625 239.375 225.625H241.125V228H238.875C237.592 228 236.609 227.7 235.925 227.1C235.242 226.5 234.9 225.525 234.9 224.175V216.55H233.275V214.225H234.9V210.8H237.775V214.225H241.125V216.55H237.775ZM246.602 216.225C247.019 215.525 247.569 214.983 248.252 214.6C248.952 214.2 249.777 214 250.727 214V216.95H250.002C248.885 216.95 248.035 217.233 247.452 217.8C246.885 218.367 246.602 219.35 246.602 220.75V228H243.752V214.225H246.602V216.225ZM252.397 221.05C252.397 219.667 252.68 218.442 253.247 217.375C253.83 216.308 254.613 215.483 255.597 214.9C256.597 214.3 257.697 214 258.897 214C259.98 214 260.922 214.217 261.722 214.65C262.538 215.067 263.188 215.592 263.672 216.225V214.225H266.547V228H263.672V225.95C263.188 226.6 262.53 227.142 261.697 227.575C260.863 228.008 259.913 228.225 258.847 228.225C257.663 228.225 256.58 227.925 255.597 227.325C254.613 226.708 253.83 225.858 253.247 224.775C252.68 223.675 252.397 222.433 252.397 221.05ZM263.672 221.1C263.672 220.15 263.472 219.325 263.072 218.625C262.688 217.925 262.18 217.392 261.547 217.025C260.913 216.658 260.23 216.475 259.497 216.475C258.763 216.475 258.08 216.658 257.447 217.025C256.813 217.375 256.297 217.9 255.897 218.6C255.513 219.283 255.322 220.1 255.322 221.05C255.322 222 255.513 222.833 255.897 223.55C256.297 224.267 256.813 224.817 257.447 225.2C258.097 225.567 258.78 225.75 259.497 225.75C260.23 225.75 260.913 225.567 261.547 225.2C262.18 224.833 262.688 224.3 263.072 223.6C263.472 222.883 263.672 222.05 263.672 221.1ZM273.14 216.225C273.557 215.525 274.107 214.983 274.79 214.6C275.49 214.2 276.315 214 277.265 214V216.95H276.54C275.423 216.95 274.573 217.233 273.99 217.8C273.423 218.367 273.14 219.35 273.14 220.75V228H270.29V214.225H273.14V216.225ZM278.935 221.05C278.935 219.667 279.218 218.442 279.785 217.375C280.368 216.308 281.151 215.483 282.135 214.9C283.135 214.3 284.235 214 285.435 214C286.518 214 287.46 214.217 288.26 214.65C289.076 215.067 289.726 215.592 290.21 216.225V214.225H293.085V228H290.21V225.95C289.726 226.6 289.068 227.142 288.235 227.575C287.401 228.008 286.451 228.225 285.385 228.225C284.201 228.225 283.118 227.925 282.135 227.325C281.151 226.708 280.368 225.858 279.785 224.775C279.218 223.675 278.935 222.433 278.935 221.05ZM290.21 221.1C290.21 220.15 290.01 219.325 289.61 218.625C289.226 217.925 288.718 217.392 288.085 217.025C287.451 216.658 286.768 216.475 286.035 216.475C285.301 216.475 284.618 216.658 283.985 217.025C283.351 217.375 282.835 217.9 282.435 218.6C282.051 219.283 281.86 220.1 281.86 221.05C281.86 222 282.051 222.833 282.435 223.55C282.835 224.267 283.351 224.817 283.985 225.2C284.635 225.567 285.318 225.75 286.035 225.75C286.768 225.75 287.451 225.567 288.085 225.2C288.718 224.833 289.226 224.3 289.61 223.6C290.01 222.883 290.21 222.05 290.21 221.1ZM313.503 214C314.586 214 315.553 214.225 316.403 214.675C317.27 215.125 317.945 215.792 318.428 216.675C318.928 217.558 319.178 218.625 319.178 219.875V228H316.353V220.3C316.353 219.067 316.045 218.125 315.428 217.475C314.811 216.808 313.97 216.475 312.903 216.475C311.836 216.475 310.986 216.808 310.353 217.475C309.736 218.125 309.428 219.067 309.428 220.3V228H306.603V220.3C306.603 219.067 306.295 218.125 305.678 217.475C305.061 216.808 304.22 216.475 303.153 216.475C302.086 216.475 301.236 216.808 300.603 217.475C299.986 218.125 299.678 219.067 299.678 220.3V228H296.828V214.225H299.678V215.8C300.145 215.233 300.736 214.792 301.453 214.475C302.17 214.158 302.936 214 303.753 214C304.853 214 305.836 214.233 306.703 214.7C307.57 215.167 308.236 215.842 308.703 216.725C309.12 215.892 309.77 215.233 310.653 214.75C311.536 214.25 312.486 214 313.503 214ZM328.349 221.05C328.349 219.667 328.632 218.442 329.199 217.375C329.782 216.308 330.565 215.483 331.549 214.9C332.549 214.3 333.649 214 334.849 214C335.932 214 336.874 214.217 337.674 214.65C338.49 215.067 339.14 215.592 339.624 216.225V214.225H342.499V228H339.624V225.95C339.14 226.6 338.482 227.142 337.649 227.575C336.815 228.008 335.865 228.225 334.799 228.225C333.615 228.225 332.532 227.925 331.549 227.325C330.565 226.708 329.782 225.858 329.199 224.775C328.632 223.675 328.349 222.433 328.349 221.05ZM339.624 221.1C339.624 220.15 339.424 219.325 339.024 218.625C338.64 217.925 338.132 217.392 337.499 217.025C336.865 216.658 336.182 216.475 335.449 216.475C334.715 216.475 334.032 216.658 333.399 217.025C332.765 217.375 332.249 217.9 331.849 218.6C331.465 219.283 331.274 220.1 331.274 221.05C331.274 222 331.465 222.833 331.849 223.55C332.249 224.267 332.765 224.817 333.399 225.2C334.049 225.567 334.732 225.75 335.449 225.75C336.182 225.75 336.865 225.567 337.499 225.2C338.132 224.833 338.64 224.3 339.024 223.6C339.424 222.883 339.624 222.05 339.624 221.1ZM349.092 209.5V228H346.242V209.5H349.092ZM358.384 214C359.451 214 360.392 214.217 361.209 214.65C362.042 215.067 362.692 215.592 363.159 216.225V214.225H366.034V228.225C366.034 229.492 365.767 230.617 365.234 231.6C364.701 232.6 363.926 233.383 362.909 233.95C361.909 234.517 360.709 234.8 359.309 234.8C357.442 234.8 355.892 234.358 354.659 233.475C353.426 232.608 352.726 231.425 352.559 229.925H355.384C355.601 230.642 356.059 231.217 356.759 231.65C357.476 232.1 358.326 232.325 359.309 232.325C360.459 232.325 361.384 231.975 362.084 231.275C362.801 230.575 363.159 229.558 363.159 228.225V225.925C362.676 226.575 362.017 227.125 361.184 227.575C360.367 228.008 359.434 228.225 358.384 228.225C357.184 228.225 356.084 227.925 355.084 227.325C354.101 226.708 353.317 225.858 352.734 224.775C352.167 223.675 351.884 222.433 351.884 221.05C351.884 219.667 352.167 218.442 352.734 217.375C353.317 216.308 354.101 215.483 355.084 214.9C356.084 214.3 357.184 214 358.384 214ZM363.159 221.1C363.159 220.15 362.959 219.325 362.559 218.625C362.176 217.925 361.667 217.392 361.034 217.025C360.401 216.658 359.717 216.475 358.984 216.475C358.251 216.475 357.567 216.658 356.934 217.025C356.301 217.375 355.784 217.9 355.384 218.6C355.001 219.283 354.809 220.1 354.809 221.05C354.809 222 355.001 222.833 355.384 223.55C355.784 224.267 356.301 224.817 356.934 225.2C357.584 225.567 358.267 225.75 358.984 225.75C359.717 225.75 360.401 225.567 361.034 225.2C361.667 224.833 362.176 224.3 362.559 223.6C362.959 222.883 363.159 222.05 363.159 221.1ZM382.252 214.225V228H379.402V226.375C378.952 226.942 378.361 227.392 377.627 227.725C376.911 228.042 376.144 228.2 375.327 228.2C374.244 228.2 373.269 227.975 372.402 227.525C371.552 227.075 370.877 226.408 370.377 225.525C369.894 224.642 369.652 223.575 369.652 222.325V214.225H372.477V221.9C372.477 223.133 372.786 224.083 373.402 224.75C374.019 225.4 374.861 225.725 375.927 225.725C376.994 225.725 377.836 225.4 378.452 224.75C379.086 224.083 379.402 223.133 379.402 221.9V214.225H382.252ZM402.688 214C403.771 214 404.738 214.225 405.588 214.675C406.454 215.125 407.129 215.792 407.613 216.675C408.113 217.558 408.363 218.625 408.363 219.875V228H405.538V220.3C405.538 219.067 405.229 218.125 404.613 217.475C403.996 216.808 403.154 216.475 402.088 216.475C401.021 216.475 400.171 216.808 399.538 217.475C398.921 218.125 398.613 219.067 398.613 220.3V228H395.788V220.3C395.788 219.067 395.479 218.125 394.863 217.475C394.246 216.808 393.404 216.475 392.338 216.475C391.271 216.475 390.421 216.808 389.788 217.475C389.171 218.125 388.863 219.067 388.863 220.3V228H386.013V214.225H388.863V215.8C389.329 215.233 389.921 214.792 390.638 214.475C391.354 214.158 392.121 214 392.938 214C394.038 214 395.021 214.233 395.888 214.7C396.754 215.167 397.421 215.842 397.888 216.725C398.304 215.892 398.954 215.233 399.838 214.75C400.721 214.25 401.671 214 402.688 214ZM435.158 214C436.242 214 437.208 214.225 438.058 214.675C438.925 215.125 439.6 215.792 440.083 216.675C440.583 217.558 440.833 218.625 440.833 219.875V228H438.008V220.3C438.008 219.067 437.7 218.125 437.083 217.475C436.467 216.808 435.625 216.475 434.558 216.475C433.492 216.475 432.642 216.808 432.008 217.475C431.392 218.125 431.083 219.067 431.083 220.3V228H428.258V220.3C428.258 219.067 427.95 218.125 427.333 217.475C426.717 216.808 425.875 216.475 424.808 216.475C423.742 216.475 422.892 216.808 422.258 217.475C421.642 218.125 421.333 219.067 421.333 220.3V228H418.483V214.225H421.333V215.8C421.8 215.233 422.392 214.792 423.108 214.475C423.825 214.158 424.592 214 425.408 214C426.508 214 427.492 214.233 428.358 214.7C429.225 215.167 429.892 215.842 430.358 216.725C430.775 215.892 431.425 215.233 432.308 214.75C433.192 214.25 434.142 214 435.158 214ZM457.085 220.775C457.085 221.292 457.052 221.758 456.985 222.175H446.46C446.543 223.275 446.952 224.158 447.685 224.825C448.418 225.492 449.318 225.825 450.385 225.825C451.918 225.825 453.002 225.183 453.635 223.9H456.71C456.293 225.167 455.535 226.208 454.435 227.025C453.352 227.825 452.002 228.225 450.385 228.225C449.068 228.225 447.885 227.933 446.835 227.35C445.802 226.75 444.985 225.917 444.385 224.85C443.802 223.767 443.51 222.517 443.51 221.1C443.51 219.683 443.793 218.442 444.36 217.375C444.943 216.292 445.752 215.458 446.785 214.875C447.835 214.292 449.035 214 450.385 214C451.685 214 452.843 214.283 453.86 214.85C454.877 215.417 455.668 216.217 456.235 217.25C456.802 218.267 457.085 219.442 457.085 220.775ZM454.11 219.875C454.093 218.825 453.718 217.983 452.985 217.35C452.252 216.717 451.343 216.4 450.26 216.4C449.277 216.4 448.435 216.717 447.735 217.35C447.035 217.967 446.618 218.808 446.485 219.875H454.11ZM463.215 216.55V224.175C463.215 224.692 463.331 225.067 463.565 225.3C463.815 225.517 464.231 225.625 464.815 225.625H466.565V228H464.315C463.031 228 462.048 227.7 461.365 227.1C460.681 226.5 460.34 225.525 460.34 224.175V216.55H458.715V214.225H460.34V210.8H463.215V214.225H466.565V216.55H463.215ZM481.816 220.775C481.816 221.292 481.783 221.758 481.716 222.175H471.191C471.275 223.275 471.683 224.158 472.416 224.825C473.15 225.492 474.05 225.825 475.116 225.825C476.65 225.825 477.733 225.183 478.366 223.9H481.441C481.025 225.167 480.266 226.208 479.166 227.025C478.083 227.825 476.733 228.225 475.116 228.225C473.8 228.225 472.616 227.933 471.566 227.35C470.533 226.75 469.716 225.917 469.116 224.85C468.533 223.767 468.241 222.517 468.241 221.1C468.241 219.683 468.525 218.442 469.091 217.375C469.675 216.292 470.483 215.458 471.516 214.875C472.566 214.292 473.766 214 475.116 214C476.416 214 477.575 214.283 478.591 214.85C479.608 215.417 480.4 216.217 480.966 217.25C481.533 218.267 481.816 219.442 481.816 220.775ZM478.841 219.875C478.825 218.825 478.45 217.983 477.716 217.35C476.983 216.717 476.075 216.4 474.991 216.4C474.008 216.4 473.166 216.717 472.466 217.35C471.766 217.967 471.35 218.808 471.216 219.875H478.841ZM490.596 228.225C489.296 228.225 488.121 227.933 487.071 227.35C486.021 226.75 485.196 225.917 484.596 224.85C483.996 223.767 483.696 222.517 483.696 221.1C483.696 219.7 484.004 218.458 484.621 217.375C485.238 216.292 486.079 215.458 487.146 214.875C488.213 214.292 489.404 214 490.721 214C492.038 214 493.229 214.292 494.296 214.875C495.363 215.458 496.204 216.292 496.821 217.375C497.438 218.458 497.746 219.7 497.746 221.1C497.746 222.5 497.429 223.742 496.796 224.825C496.163 225.908 495.296 226.75 494.196 227.35C493.113 227.933 491.913 228.225 490.596 228.225ZM490.596 225.75C491.329 225.75 492.013 225.575 492.646 225.225C493.296 224.875 493.821 224.35 494.221 223.65C494.621 222.95 494.821 222.1 494.821 221.1C494.821 220.1 494.629 219.258 494.246 218.575C493.863 217.875 493.354 217.35 492.721 217C492.088 216.65 491.404 216.475 490.671 216.475C489.938 216.475 489.254 216.65 488.621 217C488.004 217.35 487.513 217.875 487.146 218.575C486.779 219.258 486.596 220.1 486.596 221.1C486.596 222.583 486.971 223.733 487.721 224.55C488.488 225.35 489.446 225.75 490.596 225.75ZM503.413 216.225C503.83 215.525 504.38 214.983 505.063 214.6C505.763 214.2 506.588 214 507.538 214V216.95H506.813C505.697 216.95 504.847 217.233 504.263 217.8C503.697 218.367 503.413 219.35 503.413 220.75V228H500.563V214.225H503.413V216.225ZM516.133 228.225C514.833 228.225 513.658 227.933 512.608 227.35C511.558 226.75 510.733 225.917 510.133 224.85C509.533 223.767 509.233 222.517 509.233 221.1C509.233 219.7 509.542 218.458 510.158 217.375C510.775 216.292 511.617 215.458 512.683 214.875C513.75 214.292 514.942 214 516.258 214C517.575 214 518.767 214.292 519.833 214.875C520.9 215.458 521.742 216.292 522.358 217.375C522.975 218.458 523.283 219.7 523.283 221.1C523.283 222.5 522.967 223.742 522.333 224.825C521.7 225.908 520.833 226.75 519.733 227.35C518.65 227.933 517.45 228.225 516.133 228.225ZM516.133 225.75C516.867 225.75 517.55 225.575 518.183 225.225C518.833 224.875 519.358 224.35 519.758 223.65C520.158 222.95 520.358 222.1 520.358 221.1C520.358 220.1 520.167 219.258 519.783 218.575C519.4 217.875 518.892 217.35 518.258 217C517.625 216.65 516.942 216.475 516.208 216.475C515.475 216.475 514.792 216.65 514.158 217C513.542 217.35 513.05 217.875 512.683 218.575C512.317 219.258 512.133 220.1 512.133 221.1C512.133 222.583 512.508 223.733 513.258 224.55C514.025 225.35 514.983 225.75 516.133 225.75ZM529.676 210.625L529.351 222.75H526.976L526.651 210.625H529.676ZM528.251 228.175C527.734 228.175 527.301 228 526.951 227.65C526.601 227.3 526.426 226.867 526.426 226.35C526.426 225.833 526.601 225.4 526.951 225.05C527.301 224.7 527.734 224.525 528.251 224.525C528.751 224.525 529.176 224.7 529.526 225.05C529.876 225.4 530.051 225.833 530.051 226.35C530.051 226.867 529.876 227.3 529.526 227.65C529.176 228 528.751 228.175 528.251 228.175Z" fill="#2B2E31"/>
<path d="M250.162 115.95H218.662V100.95L248.662 30H266.662V100.95H274.462V115.95H266.662V135H250.162V115.95ZM250.162 100.95V60H249.862L233.662 100.95H250.162ZM336.471 136.5C328.371 136.5 322.171 134.2 317.871 129.6C313.571 125 311.421 118.5 311.421 110.1V54.9C311.421 46.5 313.571 40 317.871 35.4C322.171 30.8 328.371 28.5 336.471 28.5C344.571 28.5 350.771 30.8 355.071 35.4C359.371 40 361.521 46.5 361.521 54.9V110.1C361.521 118.5 359.371 125 355.071 129.6C350.771 134.2 344.571 136.5 336.471 136.5ZM336.471 121.5C342.171 121.5 345.021 118.05 345.021 111.15V53.85C345.021 46.95 342.171 43.5 336.471 43.5C330.771 43.5 327.921 46.95 327.921 53.85V111.15C327.921 118.05 330.771 121.5 336.471 121.5ZM430.279 115.95H398.779V100.95L428.779 30H446.779V100.95H454.579V115.95H446.779V135H430.279V115.95ZM430.279 100.95V60H429.979L413.779 100.95H430.279Z" fill="#4D63E3"/>
</svg>
