<svg width="634" height="606" viewBox="0 0 634 606" fill="none" xmlns="http://www.w3.org/2000/svg">
<path fill-rule="evenodd" clip-rule="evenodd" d="M277.819 -60.575C238.903 -81.2675 189.459 -47.3334 151.797 -24.4381C115.465 -2.35183 88.6345 32.4296 65.8138 68.3045C45.2057 100.701 29.857 136.872 24.9597 174.954C20.4713 209.856 37.8799 243.532 38.7557 278.711C39.5349 310.012 34.2094 340.411 29.8507 371.416C23.4855 416.696 -15.5455 465.62 6.87897 505.468C27.7097 542.484 86.8134 530.849 127.117 544.256C160.467 555.351 192.18 568.594 225.949 578.343C261.99 588.747 297.794 611.824 334.509 604.128C371.332 596.41 391.077 555.175 423.932 536.844C458.355 517.638 500.755 516.333 532.86 493.461C568.073 468.376 602.811 438.034 618.942 397.921C635.138 357.643 639.235 309.194 623.176 268.861C606.764 227.643 548.406 215.648 530.248 175.169C511.091 132.461 560.397 58.0694 518.905 36.4048C469.459 10.587 412.541 107.505 360.791 86.6881C308.07 65.4804 327.994 -33.8961 277.819 -60.575Z" fill="#291C85"/>
<path d="M518.326 160.456L422.291 274.46C413.176 285.284 393.197 286.4 382.239 276.699L343.491 242.492C325.814 226.911 293.759 229.3 280.242 247.182L187.843 369.597C178.594 381.86 156.505 382.704 145.614 371.252L47.6022 266.963C45.3193 264.533 40.9511 264.012 37.8456 265.798C34.7402 267.584 34.0734 271 36.3564 273.43L134.392 377.744C151.244 395.464 185.528 394.154 199.863 375.146L292.259 252.736C300.953 241.234 321.652 239.691 333.048 249.736L371.786 283.934C388.828 299.021 419.777 297.293 433.947 280.467L529.981 166.463C532.101 163.946 531.212 160.56 527.993 158.901C524.775 157.242 520.446 157.938 518.326 160.456Z" fill="#E1E5F0"/>
<path d="M479.108 200.184C467.545 200.184 458.171 207.517 458.171 216.562C458.171 225.607 467.545 232.939 479.108 232.939C490.671 232.939 500.044 225.607 500.044 216.562C500.044 207.517 490.671 200.184 479.108 200.184Z" fill="#3ABF7C"/>
<path d="M245.634 288.522C234.071 288.522 224.698 295.855 224.698 304.9C224.698 313.945 234.071 321.277 245.634 321.277C257.197 321.277 266.571 313.945 266.571 304.9C266.571 295.855 257.197 288.522 245.634 288.522Z" fill="#FFCB3D"/>
</svg>
