<svg width="549" height="616" viewBox="0 0 549 616" fill="none" xmlns="http://www.w3.org/2000/svg">
<path fill-rule="evenodd" clip-rule="evenodd" d="M246.444 41.7841C178.74 20.9359 97.794 -24.7696 40.6021 17.0354C-16.6261 58.867 4.92133 149.978 1.55969 220.785C-0.928345 273.191 17.9111 320.579 23.7157 372.722C31.6588 444.075 -7.92999 530.251 41.7765 582.054C90.4948 632.828 176.547 612.956 246.444 604.846C309.315 597.552 367.839 575.115 419.29 538.254C471.041 501.178 520.292 456.258 538.846 395.36C557.226 335.029 550.732 266.226 518.723 211.884C489.494 162.262 425.864 151.142 377.022 120.628C332.818 93.0133 296.257 57.1227 246.444 41.7841Z" fill="#291C85"/>
<path d="M507.551 447.73L406.703 295.93C397.131 281.517 376.15 280.032 364.643 292.949L323.954 338.496C305.39 359.243 271.728 356.062 257.534 332.252L160.504 169.253C150.791 152.924 127.595 151.8 116.158 167.049L13.2339 305.913C10.8365 309.148 6.24933 309.842 2.98828 307.464C-0.272827 305.086 -0.973022 300.537 1.42438 297.302L104.374 158.405C122.07 134.81 158.072 136.554 173.126 161.863L270.153 324.856C279.283 340.172 301.019 342.226 312.987 328.85L353.666 283.315C371.563 263.226 404.063 265.527 418.943 287.932L519.79 439.731C522.017 443.083 521.083 447.591 517.703 449.8C514.323 452.009 509.778 451.082 507.551 447.73Z" fill="#E1E5F0"/>
<path d="M466.367 394.83C454.225 394.83 444.382 385.067 444.382 373.023C444.382 360.98 454.225 351.217 466.367 351.217C478.51 351.217 488.353 360.98 488.353 373.023C488.353 385.067 478.51 394.83 466.367 394.83Z" fill="#3ABF7C"/>
<path d="M221.192 277.206C209.049 277.206 199.206 267.442 199.206 255.399C199.206 243.355 209.049 233.592 221.192 233.592C233.334 233.592 243.178 243.355 243.178 255.399C243.178 267.442 233.334 277.206 221.192 277.206Z" fill="#FFCB3D"/>
</svg>
